<svg width="20" height="20" viewBox="0 0 20 20" fill="none" xmlns="http://www.w3.org/2000/svg">
<path d="M2.80266 0.129213C3.42187 -0.0906304 4.13625 -0.0282867 4.70484 0.303588C5.01984 0.475619 5.25797 0.749369 5.51016 0.998275C6.41719 1.90484 7.32328 2.81187 8.23031 3.71796C8.45437 3.94155 8.64234 4.20546 8.75953 4.50077C9.10922 5.34171 8.88469 6.37577 8.21672 6.99499C7.71656 7.49374 7.21734 7.99342 6.71812 8.49311C6.50484 8.70452 6.27328 8.89952 6.01781 9.05842C4.89844 9.7742 3.39656 9.81826 2.23266 9.17983C2.82328 10.5078 3.68062 11.6998 4.63406 12.7897C5.46375 13.7262 6.36422 14.6014 7.33922 15.3861C8.24062 16.1042 9.21187 16.7459 10.267 17.2156C9.90516 16.5411 9.75234 15.7573 9.84187 14.9965C9.93047 14.1739 10.3078 13.3901 10.8853 12.7995C11.4066 12.2745 11.932 11.7537 12.4537 11.2292C12.6834 10.9953 12.9572 10.8017 13.2637 10.6822C13.9383 10.4131 14.7455 10.4909 15.3483 10.9001C15.5245 11.0169 15.6792 11.1622 15.8264 11.3136C16.8084 12.297 17.7919 13.279 18.7744 14.2625C19.2005 14.6862 19.4564 15.2834 19.4433 15.8867C19.4583 16.542 19.1512 17.1908 18.6441 17.6037C17.2439 18.6814 15.5292 19.3808 13.7531 19.4473H13.1578C11.482 19.3779 9.8625 18.8004 8.42437 17.9581C7.36687 17.3464 6.39328 16.5983 5.48437 15.7845C4.47609 14.8737 3.53578 13.8851 2.70094 12.8126C1.69547 11.5104 0.841875 10.0648 0.371719 8.47952C0.157969 7.76889 0.0379687 7.03202 0 6.29139V5.69421C0.0675 3.91952 0.765 2.20577 1.84125 0.806087C2.09391 0.500463 2.42719 0.259994 2.80266 0.129213ZM3.01547 1.74734C2.76094 2.08062 2.53687 2.43687 2.33531 2.80484C1.71 3.9453 1.39969 5.26905 1.52766 6.56842C1.83562 6.87124 2.13891 7.18014 2.44594 7.48436C2.79844 7.82655 3.26156 8.0567 3.75094 8.11248C4.41234 8.19733 5.10609 7.9653 5.58187 7.49702C6.1275 6.94999 6.675 6.40436 7.22062 5.85733C7.49062 5.58499 7.48734 5.09749 7.21031 4.83171C6.17062 3.79202 5.13094 2.7528 4.09172 1.71265C3.80672 1.42437 3.27562 1.42859 3.01547 1.74734ZM13.5206 12.2942C12.9984 12.8192 12.4739 13.3419 11.9503 13.8654C11.5491 14.2733 11.3203 14.8414 11.3189 15.4123C11.3109 15.9894 11.5434 16.5608 11.9405 16.9775C12.2512 17.2939 12.5686 17.6042 12.8798 17.9201C13.6659 17.997 14.4656 17.9131 15.2245 17.6975C16.1109 17.4429 16.9355 16.999 17.6752 16.4525C18.0169 16.2003 18.0295 15.6486 17.7347 15.3556C16.7105 14.3319 15.6858 13.3086 14.663 12.2834C14.3798 11.937 13.7991 11.9473 13.5206 12.2942Z" fill="#12A3BA"/>
</svg>
