<svg width="24" height="24" viewBox="0 0 24 24" fill="none" xmlns="http://www.w3.org/2000/svg">
<path d="M19.7143 0C22.0812 0 24 1.91878 24 4.28571V19.7143C24 22.0812 22.0812 24 19.7143 24H4.28571C1.91878 24 0 22.0812 0 19.7143V4.28571C0 1.91878 1.91878 0 4.28571 0H19.7143ZM22.2857 6.85714H1.71429V19.7143C1.71429 21.1344 2.86555 22.2857 4.28571 22.2857H19.7143C21.1344 22.2857 22.2857 21.1344 22.2857 19.7143V6.85714ZM19.7143 1.71429H4.28571C2.86555 1.71429 1.71429 2.86555 1.71429 4.28571V5.14286H22.2857V4.28571C22.2857 2.86555 21.1344 1.71429 19.7143 1.71429Z" fill="#959499"/>
</svg>
