<svg width="16" height="16" viewBox="0 0 16 16" fill="none" xmlns="http://www.w3.org/2000/svg">
<path d="M13.1429 0C14.7208 0 16 1.27919 16 2.85714V13.1429C16 14.7208 14.7208 16 13.1429 16H2.85714C1.27919 16 0 14.7208 0 13.1429V2.85714C0 1.27919 1.27919 0 2.85714 0H13.1429ZM14.8571 4.57143H1.14286V13.1429C1.14286 14.0896 1.91037 14.8571 2.85714 14.8571H13.1429C14.0896 14.8571 14.8571 14.0896 14.8571 13.1429V4.57143ZM13.1429 1.14286H2.85714C1.91037 1.14286 1.14286 1.91037 1.14286 2.85714V3.42857H14.8571V2.85714C14.8571 1.91037 14.0896 1.14286 13.1429 1.14286Z" fill="#959499"/>
</svg>
