<svg width="35" height="30" viewBox="0 0 35 30" fill="none" xmlns="http://www.w3.org/2000/svg">
<path d="M18.5861 29.5774L32.2455 16.0702C35.9301 12.4041 35.9185 6.4832 32.2086 2.81247C28.5711 -0.786598 22.7414 -0.879651 19.0265 2.55185C18.9464 2.62583 18.8673 2.70145 18.7892 2.77871L17.4847 4.072L16.1622 2.7635C16.0897 2.69177 16.0163 2.62143 15.9421 2.55249C12.2193 -0.90588 6.37993 -0.853 2.75892 2.72979C-0.934283 6.38401 -0.916258 12.3215 2.79298 15.9916L16.5237 29.5774C17.0932 30.1409 18.0166 30.1409 18.5861 29.5774ZM20.3437 4.28634C23.1797 1.48147 27.7866 1.48294 30.6541 4.3201C33.524 7.15979 33.5282 11.7371 30.6889 14.5646L30.6867 14.5668L17.5551 27.5521L4.3475 14.484C1.47455 11.6413 1.47188 7.04898 4.31343 4.23742C7.14273 1.43799 11.7465 1.44018 14.6077 4.27113L16.7081 6.34942C17.1364 6.77319 17.8355 6.77286 18.2634 6.34868L20.3437 4.28634Z" fill="white"/>
</svg>
