<svg width="28" height="32" viewBox="0 0 28 32" fill="none" xmlns="http://www.w3.org/2000/svg">
<path d="M14.2238 1.91205C14.8959 0.0970104 17.4566 -0.739241 19.0389 0.815481C19.3611 1.132 19.6831 1.47401 19.8999 1.77901C20.5345 2.67142 20.8011 3.84664 20.8988 4.99137C20.9983 6.15795 20.9309 7.40994 20.8036 8.54334C20.6759 9.68109 20.4849 10.7251 20.3263 11.4832C20.3195 11.516 20.3126 11.5484 20.3059 11.5802H22.0559C25.7634 11.5802 28.5656 14.7284 27.9024 18.1485L26.5477 25.1348C25.6128 29.956 20.4748 32.9921 15.4326 31.7027L4.34072 28.8664C2.53114 28.4037 1.15571 27.022 0.787864 25.2975L0.0885764 22.0192C-0.461533 19.4403 1.64172 17.2678 3.87829 16.4389C4.51727 16.2021 5.09513 15.9015 5.54352 15.5285C8.92293 12.7176 10.1482 10.4712 12.2471 6.52289C12.949 5.2026 13.6693 3.40944 14.2238 1.91205ZM18.1151 12.2834L18.1159 12.2805L18.1195 12.2668L18.1343 12.2091C18.1475 12.1574 18.1669 12.0798 18.1911 11.9794C18.2396 11.7783 18.3072 11.486 18.3826 11.1258C18.5335 10.4039 18.7139 9.4166 18.8337 8.34891C18.9541 7.27687 19.0105 6.14931 18.9243 5.13947C18.8363 4.10777 18.6077 3.3097 18.2518 2.80921C18.1348 2.64457 17.9118 2.39818 17.6059 2.09763C17.2119 1.7105 16.3619 1.80061 16.095 2.5212C15.5353 4.03263 14.7812 5.91928 14.0199 7.35139C11.9067 11.3266 10.5421 13.8535 6.85802 16.9179C6.18391 17.4786 5.38316 17.8782 4.60643 18.166C2.86267 18.8123 1.74163 20.2989 2.0309 21.655L2.73019 24.9333C2.9509 25.968 3.77616 26.797 4.8619 27.0746L15.9538 29.911C19.8755 30.9138 23.8717 28.5524 24.5988 24.8026L25.9536 17.8163C26.3957 15.5362 24.5276 13.4374 22.0559 13.4374H19.0759C18.7709 13.4374 18.4829 13.3056 18.2953 13.0803C18.1076 12.8549 18.0412 12.5607 18.1151 12.2834C18.1151 12.2834 18.1151 12.2833 18.1151 12.2834Z" fill="white"/>
</svg>
