<svg width="26" height="23" viewBox="0 0 26 23" fill="none" xmlns="http://www.w3.org/2000/svg">
<path d="M13.8069 22.676L23.9538 12.3205C26.6909 9.50978 26.6823 4.97045 23.9264 2.15623C21.2243 -0.603058 16.8936 -0.674399 14.134 1.95641C14.0745 2.01314 14.0157 2.07111 13.9577 2.13035L12.9886 3.12186L12.0062 2.11868C11.9524 2.06369 11.8978 2.00976 11.8427 1.95691C9.07717 -0.694508 4.73938 -0.653967 2.04948 2.09284C-0.694039 4.89441 -0.680649 9.44649 2.07479 12.2602L12.2747 22.676C12.6978 23.108 13.3838 23.108 13.8069 22.676ZM15.1125 3.2862C17.2192 1.13579 20.6415 1.13692 22.7716 3.31207C24.9036 5.48917 24.9067 8.99848 22.7975 11.1662L22.7958 11.1679L13.0409 21.1233L3.22957 11.1044C1.09538 8.92503 1.09339 5.40422 3.20426 3.24869C5.30603 1.10246 8.726 1.10414 10.8514 3.27453L12.4118 4.86789C12.7299 5.19278 13.2492 5.19253 13.5671 4.86732L15.1125 3.2862Z" fill="#212121"/>
</svg>
