<svg width="20" height="24" viewBox="0 0 20 24" fill="none" xmlns="http://www.w3.org/2000/svg">
<path d="M9.75 0C15.1348 0 19.5 4.36522 19.5 9.75C19.5 13.8696 16.6054 18.3593 10.8902 23.2679C10.2344 23.8311 9.26558 23.8311 8.60717 23.2656L8.22942 22.9381C2.76712 18.1589 0 13.7778 0 9.75C0 4.36522 4.36522 0 9.75 0ZM9.75 1.5C5.19365 1.5 1.5 5.19365 1.5 9.75C1.5 13.2521 4.0484 17.2868 9.21455 21.807L9.58709 22.1299C9.68078 22.2104 9.81919 22.2104 9.91288 22.1299C15.3289 17.4783 18 13.3353 18 9.75C18 5.19365 14.3063 1.5 9.75 1.5ZM9.75 6C11.8211 6 13.5 7.67893 13.5 9.75C13.5 11.8211 11.8211 13.5 9.75 13.5C7.67893 13.5 6 11.8211 6 9.75C6 7.67893 7.67893 6 9.75 6ZM9.75 7.5C8.50736 7.5 7.5 8.50736 7.5 9.75C7.5 10.9926 8.50736 12 9.75 12C10.9926 12 12 10.9926 12 9.75C12 8.50736 10.9926 7.5 9.75 7.5Z" fill="#959499"/>
</svg>
