<svg width="16" height="19" viewBox="0 0 16 19" fill="none" xmlns="http://www.w3.org/2000/svg">
<path d="M8 0C12.4183 0 16 3.50102 16 7.81975C16 11.1238 13.625 14.7246 8.93554 18.6614C8.39745 19.1132 7.60253 19.1132 7.06229 18.6596L6.75234 18.397C2.27046 14.5639 0 11.0502 0 7.81975C0 3.50102 3.58172 0 8 0ZM8 1.20304C4.26146 1.20304 1.23077 4.16544 1.23077 7.81975C1.23077 10.6285 3.32176 13.8645 7.56066 17.4898L7.86633 17.7488C7.94321 17.8133 8.05677 17.8133 8.13365 17.7488C12.5776 14.0181 14.7692 10.6953 14.7692 7.81975C14.7692 4.16544 11.7385 1.20304 8 1.20304ZM8 4.81216C9.69934 4.81216 11.0769 6.1587 11.0769 7.81975C11.0769 9.4808 9.69934 10.8274 8 10.8274C6.30066 10.8274 4.92308 9.4808 4.92308 7.81975C4.92308 6.1587 6.30066 4.81216 8 4.81216ZM8 6.0152C6.9804 6.0152 6.15385 6.82312 6.15385 7.81975C6.15385 8.81638 6.9804 9.62431 8 9.62431C9.0196 9.62431 9.84615 8.81638 9.84615 7.81975C9.84615 6.82312 9.0196 6.0152 8 6.0152Z" fill="#12A3BA"/>
</svg>
