<svg width="100" height="24" viewBox="0 0 100 24" fill="none" xmlns="http://www.w3.org/2000/svg">
<path d="M87.2179 1.58109C87.4499 -0.476359 90.9718 -0.502141 91.1729 1.58109C91.5958 3.0146 90.3891 3.91699 89.2238 4.3553C88.0532 3.92215 86.8002 3.00945 87.2179 1.58109Z" fill="#12A3BA"/>
<path d="M95.0248 2.03435C94.8855 0.477083 96.8038 -0.482029 98.0826 0.250196C99.1861 0.698813 99.0623 2.07045 98.9179 3.03471C98.5364 3.78757 97.6288 3.96289 96.9636 4.35478C96.0715 3.84429 94.8494 3.28738 95.0248 2.03435Z" fill="#12A3BA"/>
<path d="M0.407654 10.6563C1.83085 5.62356 9.44187 4.42209 12.3605 8.74841C14.7789 5.16979 20.7346 5.22651 23.1066 8.81028C25.1177 11.832 24.1225 15.6324 24.3648 19.0253C24.205 20.3506 24.8392 22.0574 23.7048 23.0629C22.854 23.1815 21.3534 23.4238 21.2039 22.2224C20.8893 18.948 21.2658 15.6375 21.0337 12.358C20.8636 10.8007 19.6054 9.41875 18.0326 9.19702C16.0938 8.80513 14.093 10.3624 13.8971 12.3116C13.6393 15.5447 13.9538 18.8036 13.763 22.0419C13.7063 23.5631 10.7826 23.6404 10.6588 22.1399C10.4835 19.3811 10.6536 16.6172 10.6021 13.8585C10.7258 12.1775 10.1122 10.2747 8.48791 9.51673C6.44593 8.41323 3.63048 9.87253 3.38812 12.1878C3.09936 15.5086 3.46031 18.8552 3.22827 22.1811C2.84153 23.7951 -0.242067 23.4703 0.0621677 21.6552C0.170454 17.9992 -0.319414 14.2607 0.407654 10.6563Z" fill="#FF9F1C"/>
<path d="M32.2028 6.51498C35.7608 5.18975 40.0923 7.03579 41.6599 10.4752C43.8823 14.8015 42.1343 21.046 37.3799 22.7993C34.8894 23.4851 31.9192 23.3665 29.8927 21.5823C25.0662 17.7046 26.0305 8.4693 32.2028 6.51498ZM33.131 9.37169C29.9391 10.6557 29.4183 14.9974 30.7899 17.7871C31.7542 19.9786 34.6779 21.0306 36.756 19.7466C39.3549 18.2512 39.7777 14.6777 38.865 12.0634C38.0967 9.79968 35.3741 8.47445 33.131 9.37169Z" fill="#FF9F1C"/>
<path d="M43.6451 8.22725C42.8407 6.47403 45.8006 5.17459 46.5534 6.91749C48.0591 11.0066 49.4153 15.1628 50.7096 19.3292C52.2668 15.2401 53.2208 10.9396 54.7832 6.86077C55.5773 5.21584 58.2587 6.43794 57.5884 8.12412C56.093 12.734 54.448 17.3079 52.8289 21.8765C52.3339 23.6659 49.1626 23.6916 48.6367 21.9126C46.9195 17.3749 45.2591 12.8062 43.6451 8.22725Z" fill="#FF9F1C"/>
<path d="M63.4048 6.69065C67.1072 4.93228 71.8976 7.11865 73.0475 11.0376C73.393 12.466 74.1149 14.477 72.8618 15.6217C69.242 15.9775 65.5808 15.6372 61.9507 15.7867C62.3374 17.4007 62.9923 19.2055 64.6527 19.8965C66.8648 20.9845 69.3193 19.9687 71.2736 18.8136C72.0265 19.2365 72.965 19.9068 72.5267 20.9072C71.1447 23.0368 68.3035 23.3049 65.9882 23.1451C63.0387 23.2121 60.3676 21.098 59.3776 18.3805C57.7687 14.2501 59.0218 8.53153 63.4048 6.69065ZM61.9919 13.1879C64.73 13.2446 67.4681 13.2343 70.2062 13.1879C69.9329 11.2542 68.7418 9.04718 66.509 9.06781C64.0855 8.81514 62.456 11.0634 61.9919 13.1879Z" fill="#FF9F1C"/>
<path d="M75.9868 7.2938C76.4199 5.53543 78.9569 5.84998 79.2818 7.55163C80.6637 6.20062 82.9171 5.53543 84.6652 6.5822C85.8873 7.13911 85.4232 9.1553 84.165 9.33578C83.0048 9.3925 81.7311 8.8717 80.6637 9.51626C79.7355 10.1041 79.4726 11.2746 79.3591 12.2853C79.1993 15.5339 79.4365 18.7928 79.2715 22.0363C79.2869 23.6554 76.1414 23.5935 76.1518 21.9641C76.0486 17.0809 75.8836 12.177 75.9868 7.2938Z" fill="#FF9F1C"/>
<path d="M88.3466 6.29861C89.3315 5.60764 90.8372 6.45331 90.8062 7.6393C90.8526 12.3163 90.8475 17.0035 90.8114 21.6805C91.0228 23.6967 87.2946 23.7483 87.5886 21.6805C87.5267 17.3645 87.5989 13.0433 87.5576 8.72217C87.604 7.90229 87.4029 6.69051 88.3466 6.29861Z" fill="#FF9F1C"/>
<path d="M96.0659 6.36547C97.0302 5.57652 98.7886 6.37063 98.6029 7.69069C98.6339 12.3419 98.6339 16.9982 98.6029 21.6545C98.8711 23.2737 96.7208 23.5573 95.7617 22.8044C95.2718 21.9949 95.3801 21.0048 95.3389 20.1024C95.3698 16.3072 95.3492 12.512 95.3492 8.71684C95.4059 7.92274 95.2925 6.8605 96.0659 6.36547Z" fill="#FF9F1C"/>
</svg>
