<svg width="22" height="14" viewBox="0 0 22 14" fill="none" xmlns="http://www.w3.org/2000/svg">
<path d="M7.80947 0.412407C10.7254 -0.34246 13.9139 0.0179364 16.5822 1.42152C17.0186 1.62989 17.4039 1.92607 17.8351 2.14493C19.1338 2.18294 20.4378 2.15149 21.7391 2.15673C21.1507 2.79758 20.5583 3.4345 19.9712 4.07666C21.076 5.1015 21.7614 6.58895 21.7313 8.10262C21.7575 9.39874 21.2595 10.6857 20.4142 11.6607C19.4038 12.8336 17.8691 13.5426 16.3175 13.523C14.9558 13.5453 13.6099 13.0001 12.61 12.0814C12.0464 12.7275 11.4436 13.3382 10.8748 13.9791C10.31 13.3356 9.70188 12.7314 9.14883 12.0788C8.14234 12.9896 6.80429 13.5466 5.44002 13.523C4.2671 13.5413 3.09941 13.1403 2.16631 12.4352C0.782388 11.417 -0.0419369 9.69492 0.0170371 7.97943C0.0249003 6.50377 0.71162 5.07398 1.78101 4.07142C1.18341 3.43712 0.598914 2.78972 0 2.15542C1.30791 2.15411 2.61845 2.18163 3.92505 2.14493C5.13074 1.39269 6.42161 0.750525 7.80947 0.412407ZM6.77022 2.59707C8.90376 3.4096 10.7057 5.34657 10.8709 7.69242C10.9626 7.00832 11.1094 6.32291 11.4357 5.70827C12.1526 4.25489 13.4919 3.19729 14.9728 2.59182C12.3727 1.52112 9.369 1.5185 6.77022 2.59707ZM4.58687 4.50914C2.82682 4.89836 1.52939 6.70821 1.77446 8.50364C1.92779 10.2729 3.53058 11.7656 5.30897 11.7839C7.27084 11.9163 9.11214 10.1955 9.11476 8.23105C9.20519 6.77112 8.29175 5.33608 6.96418 4.74372C6.23159 4.38595 5.37712 4.36105 4.58687 4.50914ZM15.4643 4.50914C13.8078 4.88264 12.5077 6.5208 12.644 8.23498C12.6217 10.206 14.4893 11.9136 16.4433 11.7839C18.3082 11.7669 19.9791 10.1104 19.9883 8.24022C20.0826 6.78029 19.1718 5.3387 17.8416 4.75027C17.1103 4.38726 16.2545 4.35842 15.4643 4.50914Z" fill="black"/>
<path d="M5.08401 6.18537C6.13244 5.96127 7.25557 6.77249 7.34075 7.84844C7.50588 8.94142 6.55705 10.0318 5.44572 9.99247C4.32128 10.0462 3.3528 8.9388 3.53103 7.83271C3.61491 7.02542 4.28197 6.31511 5.08401 6.18537Z" fill="black"/>
<path d="M15.9672 6.18652C17.1073 5.93097 18.296 6.9296 18.2344 8.09859C18.2737 9.22041 17.1519 10.1627 16.055 9.9779C14.9685 9.86781 14.1639 8.69357 14.4483 7.63991C14.5977 6.9047 15.232 6.31365 15.9672 6.18652Z" fill="black"/>
</svg>
