<svg width="22" height="16" viewBox="0 0 22 16" fill="none" xmlns="http://www.w3.org/2000/svg">
<path d="M2.67695 0.66615C8.03 0.658846 13.3835 0.665291 18.737 0.663142C19.0566 0.66658 19.3811 0.643377 19.696 0.713846C20.2739 0.841033 20.8012 1.22431 21.0697 1.75541C21.23 2.04888 21.3121 2.38232 21.3134 2.71576C21.3125 6.2392 21.3134 9.76264 21.3129 13.2861C21.3099 13.6165 21.3361 13.9542 21.2407 14.2756C21.0233 15.123 20.2116 15.7727 19.3355 15.7881C14.0211 15.7881 8.70719 15.7881 3.39324 15.7881C2.9425 15.7774 2.475 15.8388 2.04445 15.6695C1.26844 15.3984 0.704688 14.6258 0.688789 13.803C0.686641 10.1072 0.688789 6.4115 0.6875 2.71576C0.689219 2.11678 0.96293 1.51564 1.43215 1.13967C1.77934 0.848767 2.22535 0.683338 2.67695 0.66615ZM3.04477 2.03599C5.22715 3.70662 7.40223 5.38713 9.58246 7.06076C9.89355 7.29924 10.2652 7.45607 10.6524 7.51537C11.2703 7.61033 11.9221 7.44232 12.4175 7.06119C14.5982 5.38713 16.7737 3.70705 18.9561 2.03599C13.6525 2.03943 8.3484 2.03986 3.04477 2.03599ZM2.06379 3.01826C2.06207 6.58467 2.06336 10.1515 2.06293 13.7179C2.05133 14.0711 2.35211 14.4011 2.70703 14.4123C8.22207 14.4144 13.7371 14.4119 19.2521 14.4136C19.623 14.4252 19.9512 14.0857 19.9379 13.717C19.9375 10.1506 19.9388 6.58467 19.9371 3.01826C17.7113 4.73099 15.4846 6.44244 13.2589 8.15517C12.6165 8.6476 11.8082 8.92303 10.9983 8.91443C10.1892 8.92217 9.38223 8.64631 8.7407 8.15431C6.51535 6.44158 4.28914 4.73056 2.06379 3.01826Z" fill="#12A3BA"/>
</svg>
