<svg width="22" height="22" viewBox="0 0 22 22" fill="none" xmlns="http://www.w3.org/2000/svg">
<path d="M8.86111 0C13.755 0 17.7222 3.96725 17.7222 8.86111C17.7222 10.9778 16.98 12.9212 15.7417 14.4452L21.7315 20.4352C22.0895 20.7931 22.0895 21.3735 21.7315 21.7315C21.4061 22.057 20.8968 22.0865 20.538 21.8203L20.4352 21.7315L14.4452 15.7417C12.9212 16.98 10.9778 17.7222 8.86111 17.7222C3.96725 17.7222 0 13.755 0 8.86111C0 3.96725 3.96725 0 8.86111 0ZM8.86111 1.83333C4.97978 1.83333 1.83333 4.97978 1.83333 8.86111C1.83333 12.7424 4.97978 15.8889 8.86111 15.8889C12.7424 15.8889 15.8889 12.7424 15.8889 8.86111C15.8889 4.97978 12.7424 1.83333 8.86111 1.83333Z" fill="white"/>
</svg>
