<svg width="23" height="23" viewBox="0 0 23 23" fill="none" xmlns="http://www.w3.org/2000/svg">
<path d="M9.26389 0C14.3802 0 18.5278 4.14758 18.5278 9.26389C18.5278 11.4768 17.7518 13.5086 16.4572 15.1018L22.7193 21.364C23.0936 21.7383 23.0936 22.3451 22.7193 22.7193C22.3791 23.0595 21.8467 23.0905 21.4715 22.8121L21.364 22.7193L15.1018 16.4572C13.5086 17.7518 11.4768 18.5278 9.26389 18.5278C4.14758 18.5278 0 14.3802 0 9.26389C0 4.14758 4.14758 0 9.26389 0ZM9.26389 1.91667C5.20613 1.91667 1.91667 5.20613 1.91667 9.26389C1.91667 13.3216 5.20613 16.6111 9.26389 16.6111C13.3216 16.6111 16.6111 13.3216 16.6111 9.26389C16.6111 5.20613 13.3216 1.91667 9.26389 1.91667Z" fill="#212121"/>
</svg>
