<svg width="13" height="13" viewBox="0 0 13 13" fill="none" xmlns="http://www.w3.org/2000/svg">
<path d="M6.05337 0.0173521C6.42184 -0.0646411 6.82706 0.151591 6.96104 0.504561C7.35376 1.61222 7.74223 2.72163 8.13495 3.82928C8.17144 3.93453 8.28043 4.00352 8.39018 4.00252C9.46509 4.00277 10.5402 4.00302 11.6152 4.00227C11.8429 3.99502 12.0701 4.09551 12.2221 4.26425C12.5221 4.57897 12.4896 5.13493 12.1539 5.41165C11.2287 6.17859 10.3038 6.94578 9.37834 7.71246C9.2971 7.77921 9.25885 7.8977 9.2971 7.99769C9.67132 9.12034 10.0455 10.2428 10.4198 11.3654C10.4475 11.4496 10.4803 11.5334 10.4913 11.6221C10.5327 11.8901 10.4263 12.1763 10.217 12.3498C9.99304 12.5451 9.65682 12.5956 9.38409 12.4788C9.27635 12.4356 9.18711 12.3598 9.09387 12.2928C8.18894 11.6291 7.28427 10.9657 6.37934 10.3022C6.2901 10.2303 6.15461 10.2233 6.06212 10.2932C5.0997 10.9969 4.14003 11.7044 3.17661 12.4071C2.91938 12.5856 2.55591 12.5838 2.29568 12.4123C1.99221 12.2238 1.85022 11.8209 1.96971 11.4839C2.35668 10.3235 2.7439 9.16309 3.13011 8.00244C3.17011 7.9007 3.13261 7.77921 3.04862 7.71171C2.12395 6.94502 1.19928 6.17859 0.274852 5.41215C0.00662469 5.18342 -0.0771183 4.77346 0.0763689 4.45673C0.199359 4.19575 0.473086 4.01227 0.762312 4.00277C1.85522 4.00227 2.94813 4.00327 4.04079 4.00227C4.15803 4.00452 4.26852 3.92353 4.30152 3.81079C4.68823 2.71538 5.0747 1.61997 5.46142 0.52456C5.55366 0.268331 5.78589 0.0695977 6.05337 0.0173521Z" fill="#FFC312"/>
</svg>
