<svg width="32" height="30" viewBox="0 0 32 30" fill="none" xmlns="http://www.w3.org/2000/svg">
<path d="M14.2068 1.0918C14.9403 -0.363938 17.0597 -0.363928 17.7932 1.0918L21.6536 8.75291L30.2856 9.98143C31.9259 10.2149 32.5808 12.1891 31.3939 13.3222L25.1477 19.2856L26.6222 27.7059C26.9024 29.306 25.1878 30.5261 23.7207 29.7707L16 25.7951L8.27927 29.7707C6.8122 30.5261 5.09757 29.3059 5.37776 27.7059L6.85229 19.2856L0.606081 13.3222C-0.580798 12.1891 0.0741445 10.2149 1.71436 9.98143L10.3464 8.75291L14.2068 1.0918ZM16 1.95861L12.1396 9.61973C11.8483 10.1978 11.2853 10.5985 10.634 10.6912L2.00192 11.9197L8.24812 17.883C8.71943 18.333 8.9345 18.9813 8.82324 19.6167L7.34871 28.037L15.0694 24.0615C15.652 23.7615 16.348 23.7615 16.9306 24.0615L24.6513 28.037L23.1768 19.6167C23.0655 18.9813 23.2806 18.333 23.7519 17.883L29.9981 11.9197L21.366 10.6912C20.7147 10.5985 20.1517 10.1978 19.8604 9.61973L16 1.95861Z" fill="white"/>
</svg>
