<svg width="22" height="21" viewBox="0 0 22 21" fill="none" xmlns="http://www.w3.org/2000/svg">
<path d="M5.68038 17.7167L5.68029 17.7167L2.80029 18.5757L2.49369 18.6672L2.6195 18.373L3.70447 15.8361L5.68038 17.7167ZM5.68038 17.7167C5.7968 17.6819 5.91934 17.6725 6.03972 17.689C6.16005 17.7056 6.27544 17.7478 6.3781 17.8127L5.68038 17.7167ZM13.4045 12.7872L13.3798 12.8046L12.0648 13.7306L11.9865 13.7857L11.9036 13.738C11.1676 13.3145 10.4917 12.7942 9.89413 12.1908C9.25351 11.551 8.69958 10.83 8.24655 10.0461L8.18391 9.93768L8.27933 9.85666L9.11433 9.14766L9.11438 9.14762C9.26227 9.02215 9.3628 8.84987 9.39929 8.65938C9.43577 8.46891 9.40603 8.27169 9.31499 8.10045C9.31498 8.10044 9.31498 8.10043 9.31497 8.10042L8.25105 6.10056L13.4045 12.7872ZM13.4045 12.7872C13.5332 12.7035 13.6823 12.6561 13.836 12.6503C14.0001 12.6442 14.1625 12.6857 14.3036 12.7698L14.3036 12.7699L15.9816 13.7699C16.099 13.8398 16.1978 13.9371 16.2696 14.0533C16.3414 14.1696 16.3842 14.3015 16.3942 14.4377C16.4042 14.574 16.3812 14.7107 16.3271 14.8362C16.2731 14.9618 16.1895 15.0724 16.0836 15.1588L16.1784 15.275L16.0836 15.1588L15.4926 15.6407C15.4926 15.6407 15.4926 15.6408 15.4926 15.6408C14.9412 16.0903 14.1681 16.3681 13.3569 16.1598L13.4045 12.7872ZM6.94205 5.86001L6.94189 5.86015L6.62601 6.13504C5.90321 6.76548 5.48484 7.79257 5.83342 8.82569C6.42449 10.5469 7.40251 12.1097 8.69225 13.3937L8.69248 13.3939C10.4826 15.1841 12.2989 15.8869 13.3567 16.1597L6.94205 5.86001ZM6.94205 5.86001C7.03844 5.77588 7.15258 5.7146 7.27596 5.68073C7.39933 5.64686 7.52876 5.64128 7.6546 5.66441C7.78043 5.68753 7.89942 5.73876 8.0027 5.81428C8.10594 5.88978 8.19081 5.9876 8.25099 6.10045L6.94205 5.86001ZM2.35042 10.4999C2.35044 8.78911 2.85775 7.11677 3.80821 5.69432C4.75868 4.27183 6.10962 3.16314 7.69021 2.50844C9.27079 1.85374 11.01 1.68245 12.6879 2.01621C14.3659 2.34997 15.9072 3.1738 17.1169 4.38353C18.3266 5.59325 19.1504 7.13453 19.4842 8.81247C19.818 10.4904 19.6467 12.2296 18.992 13.8102C18.3373 15.3908 17.2286 16.7417 15.8061 17.6922C14.3837 18.6426 12.7114 19.1499 11.0007 19.15C11.0006 19.15 11.0005 19.15 11.0004 19.15V19L2.35042 10.4999ZM2.35042 10.4999C2.34764 12.1091 2.79613 13.6869 3.64497 15.0541C3.71695 15.1701 3.75994 15.3017 3.7703 15.4378C3.78065 15.5739 3.75808 15.7105 3.7045 15.836L2.35042 10.4999ZM1.94334 15.632L1.97216 15.5646L1.93669 15.5004C1.11666 14.0171 0.650417 12.312 0.650417 10.5C0.650417 4.78384 5.28426 0.15 11.0004 0.15C16.7166 0.15 21.3504 4.78384 21.3504 10.5C21.3504 16.2162 16.7166 20.85 11.0004 20.85H11.0002C9.1973 20.8526 7.42526 20.3823 5.861 19.4859L5.80519 19.4539L5.74355 19.4723L1.24355 20.8143L1.24345 20.8143C1.0887 20.8605 0.923966 20.8618 0.768548 20.8178C0.613129 20.7738 0.473459 20.6864 0.365895 20.5659C0.258331 20.4454 0.187327 20.2968 0.161197 20.1374C0.135069 19.978 0.15489 19.8145 0.218337 19.666C0.218343 19.666 0.218349 19.6659 0.218355 19.6659L1.94334 15.632Z" fill="#12A3BA" stroke="#2B2D42" stroke-width="0.3"/>
</svg>
