<svg width="24" height="24" viewBox="0 0 24 24" fill="none" xmlns="http://www.w3.org/2000/svg">
<path d="M6.65912 5.6196C6.54492 5.9024 6.44571 6.18983 6.3615 6.48068C6.82816 6.62343 7.30529 6.78183 7.78489 6.95737C8.0569 5.98809 8.52798 5.06282 9.19815 4.24598L13.9431 8.98478L13.0509 9.87581C13.2523 10.0491 13.4475 10.2294 13.6354 10.4171C13.8012 10.5827 13.9613 10.754 14.1158 10.9301L15.0034 10.0437L19.7484 14.7826C18.9377 15.446 18.0204 15.914 17.0592 16.1868C17.2344 16.6657 17.3922 17.1424 17.5341 17.6088C17.8698 17.5109 18.2009 17.393 18.5256 17.2552C19.495 16.8429 20.3771 16.2656 21.1365 15.5585C21.2136 15.4867 21.2898 15.4133 21.3649 15.3382C21.4401 15.2632 21.5136 15.1871 21.5856 15.1101C22.2943 14.3508 22.8729 13.4688 23.2858 12.4994C24.0748 10.6431 24.2101 8.57569 23.6917 6.64701C22.8618 3.56425 20.4315 1.1359 17.3447 0.307272C16.6652 0.125123 15.9679 0.0243446 15.2692 0.00384615C15.1809 0.00128794 15.0923 0 15.0034 0C14.912 0 14.821 0.0013607 14.7302 0.00406291C13.6773 0.0358051 12.6288 0.251152 11.6371 0.650106C9.37708 1.5614 7.57251 3.36294 6.65912 5.6196ZM21.9601 6.18837C21.0033 6.82224 19.7625 6.84974 18.7811 6.27085L20.8086 4.24598C21.2991 4.84378 21.6829 5.49967 21.9601 6.18837ZM17.698 7.35253C19.0842 8.33911 20.9048 8.44647 22.3855 7.67461C22.7563 9.76884 22.2307 11.9904 20.8087 13.7237L16.0636 8.98478L17.698 7.35253ZM16.6377 6.29365L15.0034 7.92589L10.2584 3.18711C11.9939 1.76698 14.2183 1.24204 16.3152 1.61229C15.5424 3.09107 15.6499 4.90933 16.6377 6.29365ZM17.7208 5.21197C17.1412 4.23182 17.1687 2.9927 17.8034 2.03714C18.493 2.31397 19.1497 2.69729 19.7483 3.18711L17.7208 5.21197ZM6.22636 13.6967C6.51914 13.4043 6.99384 13.4043 7.28662 13.6967L10.2855 16.6917C10.5783 16.9841 10.5783 17.4582 10.2855 17.7506C9.99271 18.043 9.51802 18.043 9.22523 17.7506L6.22636 14.7556C5.93357 14.4632 5.93357 13.9891 6.22636 13.6967ZM0.0709464 10.3044C-0.359987 8.42747 1.23623 6.80119 3.12438 7.19713C4.49174 7.48386 6.22458 7.93311 7.92113 8.61296C9.60986 9.28968 11.3119 10.2142 12.5751 11.4757C13.8414 12.7404 14.7619 14.4402 15.4311 16.1244C16.1033 17.8162 16.5413 19.5416 16.8178 20.9C17.1993 22.7737 15.5846 24.3511 13.7179 23.9319C11.0869 23.341 6.92231 22.0825 4.43841 19.6018C1.95906 17.1257 0.678405 12.9502 0.0709464 10.3044ZM2.81626 8.66266C2.00016 8.49153 1.34582 9.15683 1.53246 9.96972C2.13719 12.6036 3.34829 16.3954 5.49868 18.543C7.65179 20.6933 11.4302 21.8832 14.0468 22.4709C14.8538 22.6521 15.5131 22.0067 15.3485 21.1984C15.0826 19.8927 14.6662 18.2593 14.0374 16.6768C13.4055 15.0865 12.5781 13.5965 11.5148 12.5346C10.4533 11.4744 8.95944 10.6426 7.36276 10.0027C5.77389 9.36604 4.13177 8.93852 2.81626 8.66266Z" fill="#959499"/>
</svg>
