<svg width="26" height="41" viewBox="0 0 26 41" fill="none" xmlns="http://www.w3.org/2000/svg">
<path opacity="0.3" d="M25.74 41V42H26.74V41H25.74ZM13.62 41H12.62V42H13.62V41ZM13.62 16.4H14.62V14.0009L12.916 15.6898L13.62 16.4ZM6.84 23.12L6.11789 23.8118L6.82153 24.5463L7.54396 23.8302L6.84 23.12ZM0 15.98L-0.700071 15.2659L-1.40594 15.958L-0.722115 16.6718L0 15.98ZM15.3 0.979997V-0.0200033H14.8916L14.5999 0.265924L15.3 0.979997ZM25.74 0.979997H26.74V-0.0200033H25.74V0.979997ZM25.74 40H13.62V42H25.74V40ZM14.62 41V16.4H12.62V41H14.62ZM12.916 15.6898L6.13604 22.4098L7.54396 23.8302L14.324 17.1102L12.916 15.6898ZM7.56212 22.4282L0.722115 15.2882L-0.722115 16.6718L6.11789 23.8118L7.56212 22.4282ZM0.700071 16.6941L16.0001 1.69407L14.5999 0.265924L-0.700071 15.2659L0.700071 16.6941ZM15.3 1.98H25.74V-0.0200033H15.3V1.98ZM24.74 0.979997V41H26.74V0.979997H24.74Z" fill="#959499"/>
</svg>
