<svg width="36" height="41" viewBox="0 0 36 41" fill="none" xmlns="http://www.w3.org/2000/svg">
<path opacity="0.3" d="M35.3631 41V42H36.3631V41H35.3631ZM2.66313 41H1.66313V42H2.66313V41ZM2.66313 31.58L2.08438 30.7645L1.66313 31.0634V31.58H2.66313ZM13.5831 23.78L13.0032 22.9653L12.9966 22.9701L13.5831 23.78ZM19.4631 19.22L20.1203 19.9738L19.4631 19.22ZM22.2231 16.28L21.3408 15.8094L21.3282 15.8329L21.3169 15.8571L22.2231 16.28ZM21.3831 11.96L20.8198 12.7862L20.8329 12.7952L20.8463 12.8037L21.3831 11.96ZM7.52313 15.2L6.7502 15.8345L7.39246 16.6169L8.16697 15.9652L7.52313 15.2ZM0.923125 7.16L0.191231 6.47858L-0.404644 7.1186L0.150197 7.79449L0.923125 7.16ZM8.66313 2.06L9.00185 3.00091L9.00883 2.99834L8.66313 2.06ZM30.2631 4.28L29.6229 5.04829L29.6336 5.05701L30.2631 4.28ZM32.1831 22.1L32.98 22.7041L32.1831 22.1ZM22.3431 30.44L21.7934 29.6047L19.0046 31.44H22.3431V30.44ZM35.3631 30.44H36.3631V29.44H35.3631V30.44ZM35.3631 40H2.66313V42H35.3631V40ZM3.66313 41V31.58H1.66313V41H3.66313ZM3.24187 32.3955C8.20226 28.8752 11.8455 26.2729 14.1696 24.5899L12.9966 22.9701C10.6807 24.6471 7.04399 27.2448 2.08438 30.7645L3.24187 32.3955ZM14.1631 24.5947C16.5401 22.9025 18.528 21.3619 20.1203 19.9738L18.806 18.4662C17.2783 19.7981 15.3461 21.2975 13.0032 22.9653L14.1631 24.5947ZM20.1203 19.9738C20.9135 19.2822 21.5607 18.673 22.0522 18.1494C22.526 17.6447 22.9188 17.1541 23.1293 16.7029L21.3169 15.8571C21.2475 16.0059 21.0402 16.3053 20.5941 16.7806C20.1655 17.237 19.5727 17.7978 18.806 18.4662L20.1203 19.9738ZM23.1055 16.7506C23.5153 15.9822 23.7031 15.1152 23.7031 14.18H21.7031C21.7031 14.8448 21.571 15.3778 21.3408 15.8094L23.1055 16.7506ZM23.7031 14.18C23.7031 12.8674 23.0429 11.8309 21.92 11.1163L20.8463 12.8037C21.4833 13.2091 21.7031 13.6526 21.7031 14.18H23.7031ZM21.9465 11.1338C20.8645 10.396 19.5557 10.06 18.0831 10.06V12.06C19.2506 12.06 20.1418 12.324 20.8198 12.7862L21.9465 11.1338ZM18.0831 10.06C14.0548 10.06 10.3128 11.5457 6.87928 14.4348L8.16697 15.9652C11.2935 13.3343 14.5915 12.06 18.0831 12.06V10.06ZM8.29605 14.5655L1.69605 6.52551L0.150197 7.79449L6.7502 15.8345L8.29605 14.5655ZM1.65502 7.84142C3.70583 5.63869 6.15078 4.02727 9.00184 3.00088L8.32441 1.11911C5.17547 2.25273 2.46042 4.0413 0.191231 6.47858L1.65502 7.84142ZM9.00883 2.99834C11.9439 1.91699 14.8871 1.38 17.8431 1.38V-0.620003C14.6391 -0.620003 11.4623 -0.0369911 8.31742 1.12165L9.00883 2.99834ZM17.8431 1.38C22.8339 1.38 26.7268 2.63477 29.6229 5.04822L30.9033 3.51178C27.5594 0.72522 23.1723 -0.620003 17.8431 -0.620003V1.38ZM29.6336 5.05701C32.5611 7.42861 34.0031 10.444 34.0031 14.18H36.0031C36.0031 9.83604 34.2852 6.25138 30.8926 3.50298L29.6336 5.05701ZM34.0031 14.18C34.0031 16.7376 33.1499 19.1693 31.3862 21.4959L32.98 22.7041C34.9763 20.0707 36.0031 17.2224 36.0031 14.18H34.0031ZM31.3862 21.4959C29.6092 23.84 26.4418 26.5455 21.7934 29.6047L22.8929 31.2753C27.6045 28.1745 30.997 25.32 32.98 22.7041L31.3862 21.4959ZM22.3431 31.44H35.3631V29.44H22.3431V31.44ZM34.3631 30.44V41H36.3631V30.44H34.3631Z" fill="#959499"/>
</svg>
