<svg width="36" height="42" viewBox="0 0 36 42" fill="none" xmlns="http://www.w3.org/2000/svg">
<path opacity="0.3" d="M7.76875 40.04L7.40388 40.9711L7.41141 40.974L7.419 40.9768L7.76875 40.04ZM0.68875 35.48L-0.123788 34.8971L-0.602314 35.5641L-0.0412714 36.1634L0.68875 35.48ZM6.62875 27.2L7.28127 26.4422L6.4532 25.7292L5.81621 26.6171L6.62875 27.2ZM11.8488 30.08L11.5325 31.0287L11.5409 31.0315L11.5494 31.0341L11.8488 30.08ZM22.0488 26.72L21.6384 27.6319L21.6652 27.644L21.6928 27.6545L22.0488 26.72ZM11.3088 26.3H10.3088V27.405L11.4083 27.295L11.3088 26.3ZM11.3088 15.56L11.3854 14.5629L10.3088 14.4801V15.56H11.3088ZM6.92875 14.54L6.13027 15.142L6.76058 15.978L7.56677 15.31L6.92875 14.54ZM1.22875 6.98L0.48881 6.30733L-0.0685521 6.92042L0.430274 7.58202L1.22875 6.98ZM30.3888 3.38L29.813 4.19762L29.8184 4.20137L30.3888 3.38ZM32.1888 17.24L31.4734 16.5413L31.4732 16.5415L32.1888 17.24ZM25.8888 20.36L25.7344 19.372L25.7747 21.3535L25.8888 20.36ZM32.4287 23.3L31.7702 24.0526L31.778 24.0593L32.4287 23.3ZM30.5688 38.42L31.1353 39.2441L31.1422 39.2392L30.5688 38.42ZM17.9688 40.72C14.2664 40.72 10.9879 40.1744 8.1185 39.1032L7.419 40.9768C10.5496 42.1456 14.0711 42.72 17.9688 42.72V40.72ZM8.13362 39.1089C5.28047 37.9908 3.056 36.5454 1.41877 34.7966L-0.0412714 36.1634C1.8415 38.1746 4.33703 39.7692 7.40388 40.9711L8.13362 39.1089ZM1.50129 36.0629L7.44129 27.7829L5.81621 26.6171L-0.123788 34.8971L1.50129 36.0629ZM5.97623 27.9578C7.52698 29.2931 9.38524 30.3129 11.5325 31.0287L12.165 29.1313C10.2323 28.4871 8.61053 27.5869 7.28127 26.4422L5.97623 27.9578ZM11.5494 31.0341C13.6638 31.6975 15.646 32.04 17.4888 32.04V30.04C15.8915 30.04 14.1137 29.7425 12.1481 29.1259L11.5494 31.0341ZM17.4888 32.04C19.435 32.04 21.0625 31.7752 22.2701 31.1472L21.3474 29.3728C20.555 29.7848 19.3025 30.04 17.4888 30.04V32.04ZM22.2701 31.1472C23.423 30.5477 24.3088 29.6383 24.3088 28.34H22.3088C22.3088 28.5617 22.1945 28.9323 21.3474 29.3728L22.2701 31.1472ZM24.3088 28.34C24.3088 27.7637 24.1448 27.2161 23.7831 26.7511C23.4306 26.2979 22.9434 25.9907 22.4047 25.7855L21.6928 27.6545C21.9941 27.7693 22.1369 27.8921 22.2044 27.9789C22.2627 28.0539 22.3088 28.1563 22.3088 28.34H24.3088ZM22.4591 25.8081C21.9133 25.5625 21.1773 25.4142 20.3279 25.321C19.4585 25.2256 18.389 25.18 17.1287 25.18V27.18C18.3485 27.18 19.339 27.2244 20.1096 27.309C20.9002 27.3958 21.3842 27.5176 21.6384 27.6319L22.4591 25.8081ZM17.1287 25.18C14.0659 25.18 12.0698 25.2189 11.2092 25.305L11.4083 27.295C12.1477 27.2211 14.0316 27.18 17.1287 27.18V25.18ZM12.3088 26.3V15.56H10.3088V26.3H12.3088ZM11.2321 16.5571C11.8013 16.6008 13.7943 16.62 17.1287 16.62V14.62C13.7432 14.62 11.8562 14.5992 11.3854 14.5629L11.2321 16.5571ZM17.1287 16.62C19.0009 16.62 20.5207 16.4557 21.6064 16.0663C22.1544 15.8697 22.6597 15.5922 23.0363 15.187C23.4337 14.7594 23.6488 14.2291 23.6488 13.64H21.6488C21.6488 13.7109 21.6338 13.7581 21.5712 13.8255C21.4878 13.9153 21.3031 14.0503 20.9311 14.1837C20.1768 14.4543 18.9366 14.62 17.1287 14.62V16.62ZM23.6488 13.64C23.6488 13.0034 23.4604 12.4101 23.0708 11.9024C22.6916 11.4083 22.1636 11.049 21.5621 10.7878C20.3814 10.2749 18.7304 10.06 16.7088 10.06V12.06C18.6471 12.06 19.9661 12.2751 20.7654 12.6222C21.1539 12.791 21.3684 12.9692 21.4842 13.1201C21.5896 13.2574 21.6488 13.4166 21.6488 13.64H23.6488ZM16.7088 10.06C12.7616 10.06 9.27458 11.2976 6.29073 13.77L7.56677 15.31C10.1829 13.1423 13.2159 12.06 16.7088 12.06V10.06ZM7.72723 13.938L2.02723 6.37797L0.430274 7.58202L6.13027 15.142L7.72723 13.938ZM1.96869 7.65267C5.73981 3.50444 11.0461 1.38 18.0288 1.38V-0.620003C10.6114 -0.620003 4.7177 1.65555 0.48881 6.30733L1.96869 7.65267ZM18.0288 1.38C23.329 1.38 27.2115 2.36555 29.813 4.1976L30.9645 2.56239C27.886 0.394441 23.5285 -0.620003 18.0288 -0.620003V1.38ZM29.8184 4.20137C32.4393 6.02145 33.7088 8.41966 33.7088 11.48H35.7088C35.7088 7.74034 34.0982 4.73855 30.9591 2.55863L29.8184 4.20137ZM33.7088 11.48C33.7088 13.3032 32.9975 14.9809 31.4734 16.5413L32.9041 17.9387C34.74 16.0591 35.7088 13.8968 35.7088 11.48H33.7088ZM31.4732 16.5415C29.9998 18.0508 28.1043 19.0017 25.7344 19.372L26.0431 21.348C28.7932 20.9183 31.0977 19.7892 32.9043 17.9385L31.4732 16.5415ZM25.7747 21.3535C28.0048 21.6094 29.9968 22.5008 31.7702 24.0526L33.0873 22.5474C31.0207 20.7392 28.6527 19.6706 26.0028 19.3665L25.7747 21.3535ZM31.778 24.0593C33.5145 25.5477 34.3688 27.4095 34.3688 29.72H36.3688C36.3688 26.8305 35.263 24.4123 33.0795 22.5407L31.778 24.0593ZM34.3688 29.72C34.3688 32.9183 32.9584 35.5266 29.9953 37.6008L31.1422 39.2392C34.5791 36.8334 36.3688 33.6417 36.3688 29.72H34.3688ZM30.0022 37.596C27.0169 39.6484 23.0338 40.72 17.9688 40.72V42.72C23.3037 42.72 27.7206 41.5916 31.1353 39.244L30.0022 37.596Z" fill="#959499"/>
</svg>
