<svg width="37" height="41" viewBox="0 0 37 41" fill="none" xmlns="http://www.w3.org/2000/svg">
<path opacity="0.3" d="M32.3155 41V42H33.3155V41H32.3155ZM20.1955 41H19.1955V42H20.1955V41ZM20.1955 34.58H21.1955V33.58H20.1955V34.58ZM0.935469 34.58H-0.0645312V35.58H0.935469V34.58ZM0.935469 25.28L0.0779759 24.7655L-0.0645312 25.003V25.28H0.935469ZM15.5155 0.979997V-0.0200033H14.9493L14.658 0.465501L15.5155 0.979997ZM32.3155 0.979997H33.3155V-0.0200033H32.3155V0.979997ZM32.3155 24.02H31.3155V25.02H32.3155V24.02ZM36.9355 24.02H37.9355V23.02H36.9355V24.02ZM36.9355 34.58V35.58H37.9355V34.58H36.9355ZM32.3155 34.58V33.58H31.3155V34.58H32.3155ZM20.1955 24.02V25.02H21.1955V24.02H20.1955ZM20.1955 11.42H21.1955V7.80968L19.338 10.9055L20.1955 11.42ZM12.6355 24.02L11.778 23.5055L10.8693 25.02H12.6355V24.02ZM32.3155 40H20.1955V42H32.3155V40ZM21.1955 41V34.58H19.1955V41H21.1955ZM20.1955 33.58H0.935469V35.58H20.1955V33.58ZM1.93547 34.58V25.28H-0.0645312V34.58H1.93547ZM1.79296 25.7945L16.373 1.49449L14.658 0.465501L0.0779759 24.7655L1.79296 25.7945ZM15.5155 1.98H32.3155V-0.0200033H15.5155V1.98ZM31.3155 0.979997V24.02H33.3155V0.979997H31.3155ZM32.3155 25.02H36.9355V23.02H32.3155V25.02ZM35.9355 24.02V34.58H37.9355V24.02H35.9355ZM36.9355 33.58H32.3155V35.58H36.9355V33.58ZM31.3155 34.58V41H33.3155V34.58H31.3155ZM21.1955 24.02V11.42H19.1955V24.02H21.1955ZM19.338 10.9055L11.778 23.5055L13.493 24.5345L21.053 11.9345L19.338 10.9055ZM12.6355 25.02H20.1955V23.02H12.6355V25.02Z" fill="#959499"/>
</svg>
