<svg width="24" height="22" viewBox="0 0 24 22" fill="none" xmlns="http://www.w3.org/2000/svg">
<path d="M15.25 14C16.4926 14 17.5 15.0074 17.5 16.25V17.752L17.4921 17.8604C17.1814 19.9866 15.2715 21.009 12.0668 21.009C8.87361 21.009 6.9333 19.9983 6.51446 17.8966L6.5 17.75V16.25C6.5 15.0074 7.50736 14 8.75 14H15.25ZM15.25 15.5H8.75C8.33579 15.5 8 15.8358 8 16.25V17.6704C8.27979 18.8708 9.55063 19.509 12.0668 19.509C14.5829 19.509 15.7966 18.8777 16 17.6932V16.25C16 15.8358 15.6642 15.5 15.25 15.5ZM16.2436 7.99891L21.75 8C22.9926 8 24 9.00736 24 10.25V11.752L23.9921 11.8604C23.6814 13.9866 21.7715 15.009 18.5668 15.009L18.2519 15.0057C17.9569 14.2921 17.4151 13.7078 16.7334 13.3575C17.2482 13.4584 17.8581 13.509 18.5668 13.509C21.0829 13.509 22.2966 12.8777 22.5 11.6932V10.25C22.5 9.83579 22.1642 9.5 21.75 9.5H16.5C16.5 8.97364 16.4096 8.46838 16.2436 7.99891ZM2.25 8L7.75644 7.99891C7.61805 8.39014 7.53223 8.80622 7.50746 9.23865L7.5 9.5H2.25C1.83579 9.5 1.5 9.83579 1.5 10.25V11.6704C1.77979 12.8708 3.05063 13.509 5.56679 13.509C6.18886 13.509 6.73133 13.4704 7.1986 13.3944C6.54784 13.7478 6.03196 14.3174 5.74635 15.0066L5.56679 15.009C2.37361 15.009 0.433301 13.9983 0.0144627 11.8966L0 11.75V10.25C0 9.00736 1.00736 8 2.25 8ZM12 6C13.933 6 15.5 7.567 15.5 9.5C15.5 11.433 13.933 13 12 13C10.067 13 8.5 11.433 8.5 9.5C8.5 7.567 10.067 6 12 6ZM12 7.5C10.8954 7.5 10 8.39543 10 9.5C10 10.6046 10.8954 11.5 12 11.5C13.1046 11.5 14 10.6046 14 9.5C14 8.39543 13.1046 7.5 12 7.5ZM18.5 0C20.433 0 22 1.567 22 3.5C22 5.433 20.433 7 18.5 7C16.567 7 15 5.433 15 3.5C15 1.567 16.567 0 18.5 0ZM5.5 0C7.433 0 9 1.567 9 3.5C9 5.433 7.433 7 5.5 7C3.567 7 2 5.433 2 3.5C2 1.567 3.567 0 5.5 0ZM18.5 1.5C17.3954 1.5 16.5 2.39543 16.5 3.5C16.5 4.60457 17.3954 5.5 18.5 5.5C19.6046 5.5 20.5 4.60457 20.5 3.5C20.5 2.39543 19.6046 1.5 18.5 1.5ZM5.5 1.5C4.39543 1.5 3.5 2.39543 3.5 3.5C3.5 4.60457 4.39543 5.5 5.5 5.5C6.60457 5.5 7.5 4.60457 7.5 3.5C7.5 2.39543 6.60457 1.5 5.5 1.5Z" fill="#12A3BA"/>
</svg>
