<svg width="16" height="10" viewBox="0 0 16 10" fill="none" xmlns="http://www.w3.org/2000/svg">
<path d="M0.5 0.000976562C0.223858 0.000976562 0 0.224834 0 0.500977C0 0.777119 0.223858 1.00098 0.5 1.00098H15.5C15.7761 1.00098 16 0.777119 16 0.500977C16 0.224834 15.7761 0.000976562 15.5 0.000976562H0.5ZM0.5 3.00098C0.223858 3.00098 0 3.22483 0 3.50098C0 3.77712 0.223858 4.00098 0.5 4.00098H15.5C15.7761 4.00098 16 3.77712 16 3.50098C16 3.22483 15.7761 3.00098 15.5 3.00098H0.5ZM0 6.50098C0 6.22483 0.223858 6.00098 0.5 6.00098H15.5C15.7761 6.00098 16 6.22483 16 6.50098C16 6.77712 15.7761 7.00098 15.5 7.00098H0.5C0.223858 7.00098 0 6.77712 0 6.50098ZM0.5 9.00098C0.223858 9.00098 0 9.22483 0 9.50098C0 9.77712 0.223858 10.001 0.5 10.001H10.5C10.7761 10.001 11 9.77712 11 9.50098C11 9.22483 10.7761 9.00098 10.5 9.00098H0.5Z" fill="#FF9F1C"/>
</svg>
