<svg width="15" height="17" viewBox="0 0 15 17" fill="none" xmlns="http://www.w3.org/2000/svg">
<path d="M7.5 0C5.13307 0 3.21429 1.90279 3.21429 4.25C3.21429 6.59721 5.13307 8.5 7.5 8.5C9.86693 8.5 11.7857 6.59721 11.7857 4.25C11.7857 1.90279 9.86693 0 7.5 0ZM4.28571 4.25C4.28571 2.48959 5.7248 1.0625 7.5 1.0625C9.2752 1.0625 10.7143 2.48959 10.7143 4.25C10.7143 6.01041 9.2752 7.4375 7.5 7.4375C5.7248 7.4375 4.28571 6.01041 4.28571 4.25ZM2.15221 9.5625C0.967662 9.5625 0 10.5048 0 11.6875C0 13.4844 0.892296 14.8392 2.28749 15.7214C3.66104 16.5899 5.51278 17 7.5 17C9.48722 17 11.339 16.5899 12.7125 15.7214C14.1077 14.8392 15 13.4844 15 11.6875C15 10.514 14.0405 9.5625 12.8572 9.5625L2.15221 9.5625ZM1.07143 11.6875C1.07143 11.0996 1.55128 10.625 2.15221 10.625L12.8572 10.625C13.4488 10.625 13.9286 11.1008 13.9286 11.6875C13.9286 13.0781 13.2619 14.1139 12.1365 14.8255C10.9894 15.5508 9.35905 15.9375 7.5 15.9375C5.64095 15.9375 4.01055 15.5508 2.86352 14.8255C1.73814 14.1139 1.07143 13.0781 1.07143 11.6875Z" fill="#FF9F1C"/>
</svg>
