<svg width="22" height="26" viewBox="0 0 22 26" fill="none" xmlns="http://www.w3.org/2000/svg">
<path d="M11 0C7.5285 0 4.71429 2.91015 4.71429 6.5C4.71429 10.0898 7.5285 13 11 13C14.4715 13 17.2857 10.0898 17.2857 6.5C17.2857 2.91015 14.4715 0 11 0ZM6.28571 6.5C6.28571 3.80761 8.39637 1.625 11 1.625C13.6036 1.625 15.7143 3.80761 15.7143 6.5C15.7143 9.19239 13.6036 11.375 11 11.375C8.39637 11.375 6.28571 9.19239 6.28571 6.5ZM3.15657 14.625C1.41924 14.625 0 16.0662 0 17.875C0 20.6232 1.3087 22.6952 3.35499 24.0445C5.36952 25.3727 8.08541 26 11 26C13.9146 26 16.6305 25.3727 18.645 24.0445C20.6913 22.6952 22 20.6232 22 17.875C22 16.0803 20.5928 14.625 18.8572 14.625L3.15657 14.625ZM1.57143 17.875C1.57143 16.9759 2.27521 16.25 3.15657 16.25L18.8572 16.25C19.7249 16.25 20.4286 16.9777 20.4286 17.875C20.4286 20.0018 19.4507 21.586 17.8002 22.6743C16.1179 23.7835 13.7266 24.375 11 24.375C8.2734 24.375 5.88214 23.7835 4.19983 22.6743C2.54927 21.586 1.57143 20.0018 1.57143 17.875Z" fill="#959499"/>
</svg>
