<svg width="24" height="23" viewBox="0 0 24 23" fill="none" xmlns="http://www.w3.org/2000/svg">
<path d="M2 13L13 13.001C14.0538 13.001 14.9181 13.8165 14.9945 14.8517L15 15.001V17.5C14.999 21.7 10.713 23 7.5 23C4.35126 23 0.17105 21.7515 0.00510144 17.7485L0 17.5V15C0 13.9462 0.816397 13.0819 1.85081 13.0055L2 13ZM22 13L22.1492 13.0055C23.1319 13.0781 23.9178 13.8617 23.994 14.8434L24 15V17C23.999 20.759 20.57 22 18 22C16.942 22 15.741 21.785 14.691 21.275C15.009 20.897 15.278 20.477 15.488 20.007C16.4456 20.427 17.479 20.4925 17.9158 20.4993L18.2043 20.4963C19.2401 20.4607 22.3348 20.1117 22.4936 17.2326L22.5 17V15C22.5 14.7547 22.3222 14.5504 22.0896 14.5081L22 14.5L15.949 14.501C15.865 13.9996 15.6554 13.5434 15.3545 13.1605L15.22 13.001L22 13ZM2 14.5L1.89934 14.51C1.77496 14.5353 1.69 14.6028 1.646 14.646C1.6028 14.69 1.53528 14.7743 1.51 14.899L1.5 15V17.5C1.5 18.839 2.087 19.829 3.295 20.525C4.29136 21.1007 5.68435 21.4479 7.15851 21.4946L7.5 21.5L7.93487 21.4898C9.45545 21.4219 13.314 20.9332 13.4935 17.7323L13.5 17.499V15.001C13.5 14.7566 13.3222 14.5516 13.0896 14.5091L13 14.501L2 14.5ZM7.5 0C10.538 0 13 2.463 13 5.5C13 8.537 10.538 11 7.5 11C4.462 11 2 8.537 2 5.5C2 2.463 4.462 0 7.5 0ZM18.5 2C20.985 2 23 4.015 23 6.5C23 8.985 20.985 11 18.5 11C16.015 11 14 8.985 14 6.5C14 4.015 16.015 2 18.5 2ZM7.5 1.5C5.294 1.5 3.5 3.294 3.5 5.5C3.5 7.706 5.294 9.5 7.5 9.5C9.706 9.5 11.5 7.706 11.5 5.5C11.5 3.294 9.706 1.5 7.5 1.5ZM18.5 3.5C16.846 3.5 15.5 4.846 15.5 6.5C15.5 8.154 16.846 9.5 18.5 9.5C20.154 9.5 21.5 8.154 21.5 6.5C21.5 4.846 20.154 3.5 18.5 3.5Z" fill="#12A3BA"/>
</svg>
