<svg width="15" height="15" viewBox="0 0 15 15" fill="none" xmlns="http://www.w3.org/2000/svg">
<path d="M3.96227 12.6478L3.96221 12.6478L1.95295 13.2613L1.74946 13.3235L1.83147 13.1272L2.58841 11.3151C2.62634 11.2241 2.64235 11.1251 2.63501 11.0263L3.96227 12.6478ZM3.96227 12.6478C4.04387 12.6228 4.12969 12.616 4.21399 12.6279C4.2983 12.6398 4.37926 12.6701 4.45142 12.7168M3.96227 12.6478L4.50578 12.6329M1.64444 7.49991C1.64251 8.64756 1.9549 9.77293 2.54635 10.7483L4.50578 12.6329M1.64444 7.49991C1.64446 6.27986 1.99782 5.08703 2.6601 4.07224C3.32242 3.0574 4.26404 2.26606 5.36616 1.79867C6.46831 1.33126 7.68123 1.20893 8.85142 1.44724C10.0216 1.68555 11.0962 2.27372 11.9393 3.13698C12.7825 4.00021 13.3564 5.09976 13.5889 6.29645C13.8214 7.49313 13.7021 8.73355 13.246 9.86093C12.7899 10.9883 12.0173 11.9523 11.0256 12.6307C10.0339 13.3092 8.86774 13.6714 7.67456 13.6714M1.64444 7.49991C1.64444 7.49988 1.64444 7.49985 1.64444 7.49983L1.74444 7.5H1.64444C1.64444 7.49997 1.64444 7.49994 1.64444 7.49991ZM7.67456 13.6714V13.5714L7.67474 13.6714C7.67468 13.6714 7.67462 13.6714 7.67456 13.6714ZM7.67456 13.6714C6.53318 13.6735 5.41508 13.3422 4.45142 12.7168M4.45142 12.7168L4.50578 12.6329M4.45142 12.7168C4.4514 12.7168 4.45137 12.7168 4.45134 12.7167L4.50578 12.6329M9.35011 9.12719L9.33278 9.13968L8.41535 9.80111L8.36238 9.8393L8.30612 9.80616C7.79292 9.50386 7.32175 9.13243 6.90522 8.70186C6.45864 8.24523 6.07255 7.73064 5.75681 7.1713L5.71669 7.10022L5.77829 7.04667L6.36084 6.54024L6.36087 6.54022C6.46498 6.44978 6.53614 6.32524 6.562 6.18704C6.58786 6.04883 6.56674 5.9058 6.50236 5.78182C6.50235 5.78181 6.50235 5.78181 6.50235 5.7818L5.76008 4.35332L9.35011 9.12719ZM9.35011 9.12719C9.44053 9.06695 9.5451 9.03297 9.65275 9.02881C9.76763 9.02438 9.88146 9.0541 9.98052 9.11462L9.98057 9.11465L11.1512 9.82893C11.2337 9.87925 11.3034 9.94934 11.3541 10.0334C11.4048 10.1175 11.4351 10.2131 11.4422 10.312C11.4493 10.4109 11.433 10.51 11.3947 10.6009C11.3565 10.6918 11.2975 10.7717 11.223 10.8339L11.287 10.9107L11.223 10.8339L10.8107 11.1782C10.4249 11.5001 9.88465 11.6988 9.31787 11.5497C8.57957 11.3548 7.3117 10.8525 6.06195 9.57298L6.06179 9.57282C5.16135 8.65501 4.47837 7.53779 4.06558 6.30703C3.82089 5.56458 4.115 4.82745 4.62053 4.37602L4.84091 4.17966L4.84102 4.17956C4.90887 4.11893 4.98904 4.07491 5.07551 4.05061C5.16196 4.02632 5.2526 4.02232 5.34074 4.0389C5.42888 4.05548 5.51238 4.09225 5.58501 4.14662C5.65762 4.20098 5.7175 4.27157 5.76005 4.35325L9.35011 9.12719ZM1.35184 11.1621L1.37024 11.1181L1.34756 11.0761C0.774832 10.0154 0.449121 8.79594 0.449121 7.5C0.449121 3.41085 3.68626 0.1 7.67456 0.1C11.6629 0.1 14.9 3.41085 14.9 7.5C14.9 11.5891 11.6629 14.9 7.67456 14.9L7.67441 14.9C6.41625 14.9019 5.17947 14.5658 4.08756 13.9252L4.04972 13.903L4.00775 13.9158L0.868281 14.8744L0.868216 14.8744C0.759779 14.9076 0.64441 14.9084 0.535519 14.8769C0.426609 14.8453 0.328406 14.7826 0.252575 14.6956C0.176726 14.6086 0.126448 14.501 0.107932 14.3854C0.0894151 14.2697 0.103485 14.1511 0.148391 14.0435L1.35184 11.1621ZM4.03696 14.0114C5.14416 14.661 6.39844 15.0019 7.67456 15C11.7203 15 15 11.6421 15 7.5C15 3.35786 11.7203 0 7.67456 0C3.62882 0 0.349121 3.35786 0.349121 7.5L4.03696 14.0114Z" fill="#FF9F1C" stroke="#CECECE" stroke-width="0.2"/>
</svg>
