<svg width="14" height="14" viewBox="0 0 14 14" fill="none" xmlns="http://www.w3.org/2000/svg">
<path d="M2.01761 0.0930197C2.46339 -0.0652443 2.97766 -0.0203634 3.38699 0.218551C3.61375 0.342395 3.78518 0.539466 3.96673 0.718652C4.61969 1.37128 5.27198 2.02424 5.92495 2.67654C6.08625 2.8375 6.22157 3.02748 6.30593 3.24008C6.55767 3.84546 6.39603 4.58988 5.91516 5.03565C5.5551 5.39469 5.19572 5.75441 4.83634 6.11414C4.6828 6.26633 4.5161 6.4067 4.33219 6.5211C3.52635 7.03639 2.44516 7.06811 1.60728 6.6085C2.03246 7.56449 2.64966 8.42263 3.33603 9.2072C3.93332 9.88142 4.58156 10.5114 5.28346 11.0763C5.93237 11.5933 6.63157 12.0553 7.39117 12.3934C7.13066 11.9078 7.02065 11.3436 7.0851 10.7959C7.14888 10.2037 7.42053 9.63947 7.83627 9.21429C8.21151 8.83634 8.58979 8.46144 8.96538 8.08383C9.13073 7.91544 9.3278 7.77608 9.54849 7.69003C10.0341 7.49633 10.6152 7.55235 11.0491 7.84694C11.176 7.93097 11.2874 8.03557 11.3933 8.14457C12.1003 8.85254 12.8083 9.5595 13.5156 10.2675C13.8223 10.5725 14.0065 11.0024 13.9971 11.4367C14.0079 11.9085 13.7869 12.3755 13.4217 12.6728C12.4138 13.4486 11.1794 13.9521 9.90079 14H9.47223C8.26584 13.9501 7.09995 13.5343 6.06465 12.9279C5.30337 12.4875 4.60248 11.949 3.94817 11.3632C3.22231 10.7075 2.54539 9.99582 1.94439 9.22373C1.22056 8.2863 0.606061 7.2456 0.267598 6.10435C0.113721 5.59278 0.0273335 5.0623 0 4.52913V4.09922C0.0485928 2.82164 0.550719 1.58792 1.3255 0.580297C1.50739 0.36028 1.74732 0.187168 2.01761 0.0930197ZM2.17082 1.2579C1.98758 1.49782 1.82628 1.75429 1.68118 2.01918C1.23102 2.8402 1.00763 3.79316 1.09975 4.72857C1.32145 4.94656 1.53979 5.16894 1.76082 5.38794C2.01458 5.63428 2.34798 5.79997 2.70028 5.84013C3.17642 5.90121 3.67584 5.73417 4.01836 5.39706C4.41115 5.00325 4.80529 4.61046 5.19808 4.21666C5.39245 4.0206 5.39009 3.66965 5.19066 3.47832C4.44219 2.72985 3.69373 1.98173 2.9456 1.23293C2.74043 1.02539 2.3581 1.02843 2.17082 1.2579ZM9.73341 8.85052C9.35749 9.22846 8.97989 9.60472 8.60295 9.98165C8.3141 10.2752 8.14942 10.6842 8.14841 11.0952C8.14267 11.5106 8.31005 11.922 8.59587 12.222C8.8196 12.4498 9.04805 12.6731 9.27212 12.9006C9.83802 12.9559 10.4137 12.8955 10.96 12.7403C11.5982 12.5571 12.1917 12.2375 12.7242 11.844C12.9702 11.6625 12.9793 11.2653 12.7671 11.0544C12.0298 10.3174 11.2921 9.58076 10.5558 8.84276C10.352 8.59338 9.93386 8.6008 9.73341 8.85052Z" fill="#FF9F1C"/>
</svg>
