<svg width="15" height="11" viewBox="0 0 15 11" fill="none" xmlns="http://www.w3.org/2000/svg">
<path d="M1.82471 0.499825C5.47451 0.494845 9.12461 0.49924 12.7747 0.497775C12.9927 0.500118 13.2139 0.484298 13.4286 0.532345C13.8227 0.619064 14.1821 0.880392 14.3652 1.2425C14.4745 1.4426 14.5305 1.66994 14.5313 1.89729C14.5308 4.29963 14.5313 6.70197 14.5311 9.10432C14.529 9.32961 14.5469 9.55988 14.4818 9.77903C14.3336 10.3568 13.7802 10.7997 13.1828 10.8103C9.55937 10.8103 5.93623 10.8103 2.31309 10.8103C2.00576 10.803 1.68701 10.8448 1.39346 10.7294C0.864355 10.5446 0.47998 10.0178 0.469141 9.45676C0.467676 6.93693 0.469141 4.41711 0.468262 1.89729C0.469434 1.48889 0.656055 1.07902 0.975976 0.822677C1.2127 0.624337 1.5168 0.511544 1.82471 0.499825ZM2.07549 1.43381C3.56348 2.57287 5.04648 3.71867 6.53301 4.85979C6.74512 5.02238 6.99853 5.12932 7.2625 5.16975C7.68379 5.23449 8.12822 5.11994 8.46602 4.86008C9.95283 3.71867 11.4361 2.57317 12.9241 1.43381C9.30801 1.43615 5.6916 1.43645 2.07549 1.43381ZM1.40664 2.10354C1.40547 4.53518 1.40635 6.96711 1.40605 9.39875C1.39814 9.63957 1.60322 9.86457 1.84521 9.87219C5.60547 9.87365 9.36572 9.8719 13.126 9.87307C13.3788 9.88098 13.6026 9.64953 13.5936 9.39817C13.5933 6.96653 13.5941 4.53518 13.593 2.10354C12.0754 3.27131 10.5572 4.4382 9.03965 5.60598C8.60166 5.94172 8.05058 6.12951 7.49834 6.12365C6.94668 6.12893 6.39648 5.94084 5.95908 5.60539C4.4418 4.43762 2.92393 3.27102 1.40664 2.10354Z" fill="#FF9F1C"/>
</svg>
