<svg width="33" height="29" viewBox="0 0 33 29" fill="none" xmlns="http://www.w3.org/2000/svg">
<path d="M23.7188 0C26.4526 0 28.6895 2.13675 28.864 4.83808L28.875 5.17857L28.8759 10.4609C31.117 10.9182 32.83 12.8353 32.9881 15.1808L33 15.5357V27.9643C33 28.5363 32.5383 29 31.9688 29C31.4625 29 31.0414 28.6336 30.9541 28.1505L30.9375 27.9643V22.7857H2.0625V27.9643C2.0625 28.5363 1.60079 29 1.03125 29C0.524989 29 0.103933 28.6336 0.0166149 28.1505L0 27.9643V15.5357C0 13.0299 1.77203 10.9398 4.12618 10.4605L4.125 5.17857C4.125 2.43293 6.25254 0.186348 8.94222 0.0110152L9.28125 0H23.7188ZM27.8438 12.4286H5.15625C3.54813 12.4286 2.22657 13.6608 2.07666 15.2365L2.0625 15.5357V20.7143H30.9375V15.5357C30.9375 13.9206 29.7105 12.5934 28.1417 12.4428L27.8438 12.4286ZM23.7188 2.07143H9.28125C7.67313 2.07143 6.35157 3.3037 6.20166 4.87933L6.1875 5.17857V10.3571H8.25V9.32143C8.25 8.74942 8.71171 8.28571 9.28125 8.28571H14.4375C15.007 8.28571 15.4688 8.74942 15.4688 9.32143V10.3571H17.5312V9.32143C17.5312 8.74942 17.993 8.28571 18.5625 8.28571H23.7188C24.2883 8.28571 24.75 8.74942 24.75 9.32143V10.3571H26.8125V5.17857C26.8125 3.56349 25.5855 2.23621 24.0167 2.08565L23.7188 2.07143Z" fill="#FF9F1C"/>
</svg>
