<svg width="29" height="29" viewBox="0 0 29 29" fill="none" xmlns="http://www.w3.org/2000/svg">
<path d="M20.0262 8.82047C20.75 9.54007 21.9234 9.54007 22.6472 8.82047C23.3709 8.10087 23.3709 6.93417 22.6472 6.21457C21.9234 5.49497 20.75 5.49497 20.0262 6.21457C19.3025 6.93417 19.3025 8.10087 20.0262 8.82047ZM1.41911 12.8428C-0.473039 14.7257 -0.473036 17.7785 1.41911 19.6613L9.38466 27.5878C11.2768 29.4707 14.3446 29.4707 16.2367 27.5878L27.5219 16.358C28.422 15.4623 28.9317 14.2502 28.9409 12.9835L28.9999 4.85622C29.0193 2.17202 26.8321 -0.0111655 24.1346 4.29663e-05L16.2791 0.0326878C15.0011 0.0379975 13.777 0.545544 12.8733 1.4448L1.41911 12.8428ZM3.13213 17.9567C2.18606 17.0153 2.18606 15.4889 3.13213 14.5475L14.5863 3.14943C15.0381 2.6998 15.6502 2.44603 16.2892 2.44337L24.1447 2.41073C25.4935 2.40512 26.5871 3.49671 26.5774 4.83881L26.5184 12.9661C26.5138 13.5994 26.2589 14.2055 25.8089 14.6534L14.5237 25.8832C13.5776 26.8247 12.0438 26.8247 11.0977 25.8832L3.13213 17.9567Z" fill="#C4C4C4"/>
</svg>
