<svg width="34" height="26" viewBox="0 0 34 26" fill="none" xmlns="http://www.w3.org/2000/svg">
<path d="M24.4375 19.5C23.8507 19.5 23.375 19.985 23.375 20.5833C23.375 21.1816 23.8507 21.6667 24.4375 21.6667H28.6875C29.2743 21.6667 29.75 21.1816 29.75 20.5833C29.75 19.985 29.2743 19.5 28.6875 19.5H24.4375ZM0 5.41667C0 2.42512 2.37849 0 5.3125 0H28.6875C31.6215 0 34 2.42512 34 5.41667V20.5833C34 23.5749 31.6215 26 28.6875 26H5.3125C2.37849 26 0 23.5749 0 20.5833V5.41667ZM2.125 20.5833C2.125 22.3783 3.55209 23.8333 5.3125 23.8333H28.6875C30.4479 23.8333 31.875 22.3783 31.875 20.5833V10.8333H2.125V20.5833ZM31.875 5.41667C31.875 3.62174 30.4479 2.16667 28.6875 2.16667H5.3125C3.55209 2.16667 2.125 3.62174 2.125 5.41667V8.66667H31.875V5.41667Z" fill="#C4C4C4"/>
</svg>
