<svg width="26" height="31" viewBox="0 0 26 31" fill="none" xmlns="http://www.w3.org/2000/svg">
<path d="M13 0C8.89731 0 5.57143 3.46979 5.57143 7.75C5.57143 12.0302 8.89731 15.5 13 15.5C17.1027 15.5 20.4286 12.0302 20.4286 7.75C20.4286 3.46979 17.1027 0 13 0ZM7.42857 7.75C7.42857 4.53984 9.92299 1.9375 13 1.9375C16.077 1.9375 18.5714 4.53984 18.5714 7.75C18.5714 10.9602 16.077 13.5625 13 13.5625C9.92299 13.5625 7.42857 10.9602 7.42857 7.75ZM3.73049 17.4375C1.67728 17.4375 0 19.1558 0 21.3125C0 24.5892 1.54665 27.0597 3.96499 28.6684C6.3458 30.2521 9.55548 31 13 31C16.4445 31 19.6542 30.2521 22.035 28.6684C24.4534 27.0597 26 24.5892 26 21.3125C26 19.1727 24.3369 17.4375 22.2858 17.4375L3.73049 17.4375ZM1.85714 21.3125C1.85714 20.2405 2.68889 19.375 3.73049 19.375L22.2858 19.375C23.3112 19.375 24.1429 20.2427 24.1429 21.3125C24.1429 23.8483 22.9872 25.7371 21.0366 27.0347C19.0484 28.3573 16.2223 29.0625 13 29.0625C9.77765 29.0625 6.95162 28.3573 4.96343 27.0347C3.01278 25.7371 1.85714 23.8483 1.85714 21.3125Z" fill="#C4C4C4"/>
</svg>
