<svg width="535" height="197" viewBox="0 0 535 197" fill="none" xmlns="http://www.w3.org/2000/svg">
<path opacity="0.4" d="M253.223 0.132248C249.433 -0.557435 246.01 1.62151 242.526 2.72045C240.357 3.5314 237.975 3.19035 235.779 3.89519C231.148 5.2215 227.434 8.41223 223.435 10.9436C218.161 14.2404 213.481 18.3709 208.907 22.5621C206.469 24.7979 203.603 26.4842 200.903 28.3751C198.362 25.8362 194.936 24.1082 191.301 24.0741C187.306 23.8467 183.508 25.7263 180.582 28.3259C177.95 30.6336 175.519 33.3583 172.195 34.6846C171.078 35.1848 169.582 35.4955 169.166 36.8256C168.692 37.7806 169.514 38.5991 170.124 39.2282C169.143 41.0244 168.026 42.7827 166.538 44.2075C165.046 45.6665 163.513 47.2732 163.017 49.3726C162.449 51.434 163.619 53.8934 165.735 54.4845C168.382 55.25 171.18 55.1477 173.91 55.1704C172.589 55.826 171.191 56.3111 169.753 56.6483C170.487 58.4066 171.301 60.2332 171.18 62.1885C170.938 65.5081 169.294 68.4715 168.117 71.522C173.543 69.6272 179.075 67.9106 184.807 67.255C185.053 67.2778 185.538 67.3195 185.78 67.3422C182.91 69.9342 178.817 69.4264 175.345 70.4647C172.475 71.2719 170.366 73.5455 168.579 75.8154C168.802 75.0121 169.056 74.2163 169.257 73.4053C164.024 75.0196 158.814 76.9333 154.123 79.8095C157.216 75.8306 161.684 72.9013 166.614 71.8062C166.621 71.3742 166.617 70.9498 166.599 70.5216C164.967 70.3207 163.369 70.855 161.797 71.2302C155.69 72.9392 150.257 76.3649 145.066 79.9156C142.733 81.4996 140.613 83.5838 139.617 86.2819C138.383 89.484 138.458 93.0234 139.019 96.3581C139.299 98.2036 139.784 100.079 139.5 101.955C139.352 103.198 138.421 104.305 138.735 105.597C138.879 106.287 138.542 106.942 138.504 107.628C138.648 120.645 139.03 133.855 142.589 146.466C143.57 150.081 145.308 153.515 145.618 157.293C129.413 155.932 112.999 157.3 97.2288 161.272C94.6314 161.999 91.9772 163.185 90.349 165.429C89.2548 166.88 88.7588 168.688 88.6073 170.48C86.4339 170.359 84.3817 171.166 82.2765 171.568C79.0846 172.03 75.6693 171.715 72.7917 170.177C71.7467 169.18 70.8569 167.968 69.509 167.339C65.8665 165.345 61.603 165.724 57.6312 165.103C51.1414 164.027 5.46582 146.538 1.43713 141.339C1.10394 140.452 -0.331116 140.843 0.0702515 141.817C4.78424 148.376 52.2545 166.403 60.3005 166.831C63.5076 167.092 66.9645 167.214 69.6945 169.131C70.7849 169.806 71.2696 171.174 72.4888 171.659C75.2301 172.92 78.3122 173.447 81.3148 173.152C83.7608 172.864 86.0818 171.931 88.5505 171.784C88.9935 175.418 90.845 178.821 93.7454 181.072C98.9516 185.191 105.627 186.828 112.086 187.684C121.041 188.882 130.091 188.021 139.083 188.59C143.892 188.901 148.814 189.223 153.369 190.905C156.379 190.303 159.382 189.594 162.456 189.397C167.352 188.863 172.255 189.662 177.019 190.742C177.185 192.364 177.31 194.198 178.658 195.331C180.949 197.472 184.372 197.234 187.162 196.381C188.476 195.979 190.388 195.657 190.623 194.013C190.915 192.41 189.328 191.512 188.393 190.507C185.417 187.798 185.375 182.974 181.835 180.761C180.161 179.526 178.06 180.166 176.163 180.162C175.076 180.147 174.841 178.961 174.569 178.146C186.466 181.636 198.317 185.289 210.198 188.836C215.488 190.507 220.952 191.508 226.34 192.789C233.318 194.505 240.474 196.552 247.729 195.581C254.601 194.695 260.652 191.11 266.808 188.192C268.292 187.332 270.011 187.654 271.617 187.84C281.84 188.673 292.09 189.094 302.335 189.499C308.454 189.545 314.565 190.056 320.684 189.89C320.711 189.598 320.767 189.014 320.798 188.719C314.846 187.805 308.89 186.858 302.956 185.808C292.87 184.171 282.438 182.663 272.329 184.96C270.795 185.24 269.353 185.945 267.796 186.085C264.51 185.926 261.246 185.282 257.956 185.21C251.216 188.435 243.855 190.549 236.347 190.613C229.611 190.329 223.125 188.328 216.753 186.282C204.473 182.171 191.32 180.556 179.737 174.482C176.678 172.712 173.157 171.757 170.411 169.464C168 167.555 164.777 166.187 161.684 167.073C159.442 167.566 157.216 169.025 154.857 168.294C154.134 168.043 153.142 167.793 152.949 166.929C152.188 164.212 151.601 161.446 150.915 158.706C153.384 158.831 155.902 158.611 158.182 157.6C166.371 154.504 174.493 149.494 178.533 141.419C184.232 141.767 189.953 143.666 194.254 147.52C196.568 149.596 198.65 152.014 200.036 154.814C199.483 154.788 198.926 154.765 198.366 154.742C198.252 155.197 198.15 155.656 198.052 156.118C209.203 158.877 220.793 161.298 230.561 167.664C235.908 171.424 242.318 173.716 248.857 174C261.026 174.573 272.673 169.283 284.854 170.207C296.959 172.344 308.784 175.937 320.968 177.635C321.241 177.873 321.43 178.169 321.528 178.525C322.755 182.216 323.009 186.149 322.672 190.007C331.21 188.798 339.866 188.309 348.476 188.939C350.914 189.109 353.334 189.477 355.768 189.674C354.076 185.941 350.479 183.448 346.674 182.212C340.135 180.026 332.952 181.026 326.508 178.476C325.815 178.184 324.698 177.627 325.072 176.71C325.796 173.424 329.249 171.124 332.558 171.75C335.939 172.367 337.931 175.494 340.786 177.1C343.823 178.927 347.552 178.389 350.789 179.62C355.462 181.216 359.214 185.107 360.691 189.814C361.721 190.204 362.883 189.977 363.966 190.068C370.781 190.288 377.604 190.231 384.424 190.439C388.361 190.511 531.062 190.704 535 190.621C534.985 190.163 534.955 189.708 534.913 189.257C529.487 189.007 385.283 189.215 379.857 188.969C373.837 188.741 367.813 188.772 361.793 188.658C359.998 183.675 355.81 179.677 350.759 178.108C348.37 177.305 345.803 177.354 343.383 176.68C339.483 175.573 337.363 171.39 333.357 170.48C329.154 169.286 324.391 172.318 323.675 176.63C323.369 178.025 324.505 179.249 325.735 179.696C332.02 182.322 339.048 181.451 345.511 183.334C348.362 184.164 351.107 185.642 353.02 187.961C343.451 186.782 333.758 187.082 324.224 188.4C324.361 184.876 323.94 181.337 322.839 177.983C322.558 177.199 322.024 176.32 321.112 176.225C308.75 174.504 296.773 170.787 284.479 168.707C275.134 168.206 266.077 171.033 256.892 172.227C250.44 173.095 243.692 172.648 237.68 169.999C234.018 168.582 231.004 166.001 227.54 164.216C219.865 160.105 211.372 157.91 202.97 155.845C202.247 155.781 201.906 155.125 201.603 154.557C199.017 149.79 195.17 145.598 190.324 143.086C186.439 141.062 182.051 140.047 177.681 140.035C176.867 141.112 176.443 142.442 175.637 143.537C171.297 149.899 164.262 153.784 157.212 156.44C154.876 157.452 152.282 157.323 149.799 157.194C151.302 156.523 152.949 156.307 154.513 155.826C159.711 154.363 164.944 152.298 168.939 148.539C172.202 145.519 174.671 141.4 175.023 136.902C173.187 133.567 172.134 129.614 173.107 125.836C173.49 123.441 174.955 121.463 175.86 119.269C174.504 119.925 173.456 121.164 171.975 121.562C169.938 121.956 167.981 121.039 166.125 120.323C159.866 117.78 153.945 114.377 148.636 110.19C148.072 109.815 147.788 109.193 147.705 108.537C147.152 105.563 146.516 102.292 147.955 99.4579C149.257 96.8924 152.112 95.7897 154.622 94.7741C156.864 93.8571 159.685 93.1522 161.82 94.6945C163.373 95.767 163.433 97.8057 163.899 99.4579C164.792 103.024 168.098 105.669 171.668 106.207C174.554 106.673 177.481 105.813 179.953 104.346C178.359 108.625 176.852 112.96 175.799 117.405C176.254 117.443 176.704 117.481 177.151 117.511C181.445 104.324 192.156 94.5657 197.287 81.7838C199.309 76.7097 200.539 71.3666 201.592 66.0235C202.671 60.9304 203.258 55.6896 205.257 50.8429C204.871 53.8782 204.451 56.9174 203.701 59.8883C203.311 61.4837 202.618 62.9843 202.164 64.5645C205.401 62.9843 208.059 60.3014 209.714 57.1068C210.108 56.2618 210.77 55.5835 211.683 55.3258C212.008 55.8601 212.156 56.4589 211.887 57.0538C209.956 63.2344 209.233 69.722 207.279 75.8988C207.135 76.7363 206.954 77.7822 207.578 78.4756C208.339 79.5405 209.82 79.4988 210.971 79.3283C214.193 78.3582 214.969 73.8146 218.521 73.5152C220.149 73.3864 221.122 71.6432 220.652 70.1388C219.808 65.4702 219.63 60.6235 217.934 56.1595C219.062 49.4067 216.843 42.0816 211.823 37.3637C211.289 38.0345 210.763 38.7128 210.202 39.3684C213.451 33.2408 220.777 30.9899 224.454 25.2185C228.638 18.8219 234.7 13.4787 241.996 10.9853C245.048 9.94317 247.127 6.90402 250.379 6.40381C254.018 6.91918 257.732 7.3777 261.39 6.6956C264.09 6.02108 266.869 6.5895 269.591 6.79034C270.53 6.81307 271.162 5.57392 270.636 4.80087C270.246 3.90276 269.178 3.76255 268.342 3.54277C263.298 2.42487 258.266 1.25772 253.223 0.132248ZM269.337 5.23666C266.77 5.2935 264.169 4.51666 261.636 5.21392C258.221 5.89981 254.688 5.73687 251.295 5.0055C248.607 4.59624 246.43 6.61223 244.363 8.01054C242.413 9.59075 239.91 10.0948 237.721 11.2278C232.61 13.7705 228.237 17.6661 224.825 22.2248C223.666 23.7217 222.762 25.4118 221.425 26.7646C218.547 29.7393 214.825 31.7326 211.944 34.7035C209.399 37.2235 207.794 40.5393 206.798 43.946C206.283 45.9166 205.079 47.5991 204.33 49.4824C201.982 54.6134 201.357 60.2748 200.218 65.743C198.847 72.6702 197.181 79.6542 193.811 85.9144C189.968 93.0992 184.894 99.5147 180.688 106.476C181.354 104.24 182.433 102.152 183.115 99.924C181.854 100.754 180.892 101.944 179.643 102.793C177.844 104.032 175.712 104.85 173.512 104.888C170.605 104.998 167.685 103.494 166.099 101.046C164.921 99.2533 165.061 96.9796 164.066 95.1114C163.463 94.0655 164.13 92.8718 164.209 91.7691C165.448 85.1565 167.352 78.0057 172.717 73.4963C176.443 70.2222 182.138 72.0336 185.988 68.9868C188.086 67.3801 188.749 64.6782 189.214 62.215C190.021 58.0201 191.07 53.8669 191.74 49.6492C190.294 50.6534 188.859 51.7296 187.166 52.2904C185.542 52.9271 183.781 52.9991 182.062 53.1506C183.111 54.9355 185.254 55.3523 187.158 55.0151C185.924 58.4711 185.262 62.1241 185.182 65.7923C180.26 66.2432 175.489 67.615 170.767 69.0209C171.441 67.0239 172.312 65.0571 172.494 62.935C172.736 61.1313 172.293 59.3388 171.797 57.6184C174.796 56.4854 177.776 55.1628 180.388 53.2833C175.868 53.7797 171.271 54.0904 166.765 53.2871C165.542 53.109 164.331 52.1237 164.372 50.7974C164.156 48.8572 165.531 47.2732 166.796 45.9886C168.749 44.0825 170.521 41.8997 171.555 39.3532C171.949 38.4741 170.972 37.9814 170.502 37.4168C170.711 36.4694 171.998 36.4656 172.71 36.0223C177.473 34.192 180.324 29.6181 184.663 27.1436C185.243 26.901 185.917 26.2606 186.511 26.7987C188.029 27.4922 188.253 29.4703 187.571 30.8345C186.503 33.1423 184.281 34.893 183.97 37.5418C183.747 39.4631 183.811 41.4867 184.383 43.3397C185.178 45.3633 187.62 45.3633 189.362 45.9999C190.528 46.3675 190.661 47.7393 191.164 48.6715C192.94 44.5675 194.572 40.3953 196.617 36.4126C197.59 34.5482 198.518 32.6042 200.028 31.1035C201.899 29.2619 204.167 27.9128 206.314 26.4273C209.074 24.5819 211.357 22.1452 213.886 20.008C217.139 17.1545 220.535 14.4413 224.208 12.1411C227.937 9.79538 231.375 6.83202 235.62 5.42992C238.1 4.54319 240.834 4.92971 243.291 3.9634C246.562 2.91371 249.8 0.818142 253.367 1.61393C258.69 2.82277 264.018 4.00887 269.337 5.23666ZM200.18 28.8678C199.021 30.1713 197.715 31.3764 196.878 32.9339C194.659 36.8597 192.83 40.994 191.142 45.17C189.563 44.3705 187.719 44.2833 186.17 43.4383C185.023 42.1877 185.33 40.2286 185.25 38.6484C185.235 35.8252 187.666 33.976 188.779 31.5962C189.563 30.2054 189.411 28.5911 189.052 27.1057C192.827 27.064 196.632 27.5377 200.18 28.8678ZM212.001 39.4858C213.042 40.8842 214.098 42.29 214.825 43.8892C216.779 47.7696 217.139 52.2525 216.472 56.5043C217.953 59.6837 218.116 63.2306 218.699 66.6373C218.937 68.3009 219.305 69.9531 219.339 71.6395C218.354 72.1776 217.199 72.2192 216.185 72.6702C214.223 73.9548 213.163 76.1982 211.308 77.6003C210.524 78.2142 209.494 77.9072 208.604 77.7746C208.536 77.1152 208.555 76.4483 208.771 75.8192C210.641 69.8243 211.331 63.5338 213.216 57.5464C213.443 56.7506 213.519 55.8866 213.231 55.0984C212.644 53.9805 211.096 53.7759 210.096 54.4429C209.138 55.0416 208.673 56.1254 208.112 57.0652C207.283 58.5506 206.185 59.8845 204.92 61.0252C206.177 56.0875 206.431 50.9565 207.715 46.0302C208.839 43.677 210.399 41.5359 212.001 39.4858ZM189.733 52.7035C189.112 55.9435 188.385 59.1645 187.742 62.4007C187.507 63.6285 187.181 64.8525 186.606 65.9666C186.697 61.3965 187.62 56.7847 189.733 52.7035ZM158.397 73.7426C154.569 76.5165 151.461 80.2908 149.662 84.6828C151.298 83.6558 152.722 82.3295 154.372 81.3291C158.295 78.8697 162.604 77.0849 167 75.6828C165.906 78.6499 164.751 81.5944 163.638 84.5539C162.967 86.3729 162.339 88.2676 162.471 90.2343C162.452 91.5341 163.005 92.7354 163.361 93.9632C161.169 92.1784 158.125 91.9586 155.535 92.9287C152.332 94.092 148.682 95.3312 146.883 98.4651C144.997 101.868 145.732 105.976 146.512 109.595C146.603 110.614 147.538 111.148 148.254 111.724C154.111 116.215 160.624 119.853 167.549 122.407C169.128 122.99 170.843 123.328 172.513 122.945C170.919 126.969 170.983 131.649 172.827 135.583C173.145 136.337 173.687 137.087 173.486 137.951C172.604 142.953 169.101 147.11 164.967 149.854C159.666 153.314 153.396 154.686 147.33 156.152C147.493 159.494 147.924 163.003 149.704 165.91C150.431 167.172 151.798 167.968 152.282 169.381C153.078 171.473 154.672 173.406 156.906 173.993C157.871 174.182 159.117 174.383 159.848 173.553C161.343 172.094 163.191 170.442 165.44 170.738C168.238 171.34 170.517 173.432 172.005 175.804C169.276 175.111 166.53 174.235 163.683 174.281C161.51 174.179 159.401 174.895 157.224 174.709C151.601 174.967 146.16 173.205 140.95 171.287C134.574 168.93 128.144 166.202 121.257 165.921C114.048 165.455 106.763 166.922 100.209 169.931C98.6071 170.651 96.9221 171.393 95.1274 171.295C93.4046 171.219 91.7273 170.783 90.031 170.51C90.1748 168.881 90.6368 167.236 91.7159 165.978C93.3743 164 95.8998 163.079 98.3231 162.45C114.245 158.646 130.795 157.141 147.099 158.93C147.178 156.156 146.414 153.465 145.52 150.873C140.503 137.182 140.132 122.403 139.874 107.992C142.044 108.261 143.831 109.534 145.615 110.686C145.334 109.731 145.039 108.746 144.422 107.946C143.343 106.7 141.48 106.7 140.306 105.593C139.874 104.998 140.31 104.308 140.473 103.71C141.525 101.076 140.723 98.215 140.302 95.5358C139.962 92.527 139.825 89.3325 141.052 86.4904C141.987 84.2091 143.869 82.5 145.849 81.1169C148.477 79.3017 151.169 77.5662 153.979 76.0428C155.429 75.2319 156.993 74.6293 158.397 73.7426ZM151.109 165.584C149.617 163.034 148.814 160.044 148.924 157.088C149.908 159.839 150.389 162.753 151.109 165.584ZM128.349 168.464C136.69 170.59 144.384 175.05 153.036 175.96C151.692 177.301 150.476 178.859 149.995 180.734C149.227 183.315 149.723 186.051 150.613 188.533C139.439 186.278 127.989 187.339 116.683 186.737C109.981 186.203 103.113 185.092 97.1872 181.731C93.6318 179.696 90.4399 176.301 90.0991 172.034C92.2763 172.204 94.4307 173.004 96.6268 172.621C99.3151 172.219 101.625 170.666 104.184 169.84C111.871 167.054 120.405 166.353 128.349 168.464ZM170.063 170.999C172.433 172.883 175.379 173.754 178.007 175.194C182.361 177.51 186.962 179.336 191.668 180.799C199.332 183.209 207.26 184.668 214.893 187.184C221.887 189.363 228.956 191.849 236.362 191.94C243.708 192.012 250.962 190.019 257.577 186.911C258.058 186.672 258.577 186.502 259.11 186.635C261.155 186.866 263.2 187.059 265.241 187.313C259.004 190.488 252.609 193.994 245.472 194.407C237.301 194.763 229.524 191.849 221.622 190.269C214.356 188.821 207.328 186.456 200.233 184.353C191.494 181.731 182.766 179.075 174.02 176.471C172.327 173.129 169.385 169.995 165.557 169.358C162.714 168.904 160.499 170.999 158.556 172.735C156.455 172.989 154.808 171.223 153.827 169.559C154.823 169.76 155.83 169.961 156.845 169.851C159.329 169.677 161.525 168.085 164.054 168.271C166.33 168.335 168.337 169.62 170.063 170.999ZM172.854 177.646C173.49 178.79 173.49 180.367 174.69 181.136C176.651 182.383 179.135 180.579 181.059 181.947C183.633 183.648 184.103 186.945 185.693 189.386C186.651 191.08 188.275 192.209 189.468 193.709C188.412 194.812 186.821 194.975 185.417 195.354C183.406 195.79 180.979 195.744 179.48 194.126C178.457 193.115 178.537 191.572 178.465 190.25C178.526 188.249 177.268 186.536 175.917 185.195C171.422 180.867 165.599 177.945 159.45 176.918C156.932 176.342 155.296 179.37 155.917 181.519C156.281 183.3 157.988 184.289 159.529 184.941C162.127 186.021 164.717 187.161 167.443 187.889C162.865 187.692 158.295 188.313 153.846 189.382C153.18 187.305 152.858 185.054 153.396 182.909C153.956 179.995 156.069 177.434 158.886 176.456C163.456 174.747 168.431 176.149 172.854 177.646ZM156.728 175.842C155.266 176.869 153.892 178.093 153.074 179.711C151.673 182.117 151.726 184.967 151.817 187.658C150.809 184.944 150.647 181.689 152.21 179.15C153.172 177.445 154.91 176.414 156.728 175.842ZM175.462 186.794C176.439 187.76 177.056 189.048 177.094 190.435C176.015 189.765 175.08 188.893 173.997 188.226C172.937 187.559 171.668 187.4 170.457 187.176C167.216 186.593 164.156 185.32 161.123 184.077C159.81 183.474 158.227 183.023 157.462 181.689C156.845 180.503 157.364 178.461 158.821 178.252C165.069 179.238 171.066 182.212 175.462 186.794ZM309.049 188.215C307.012 188.336 304.975 188.135 302.941 188.056C292.726 187.817 282.525 187.222 272.332 186.509C276.365 185.316 280.636 185.217 284.812 185.248C292.983 185.327 301.003 187.013 309.049 188.215Z" fill="white"/>
</svg>
